<svg xmlns="http://www.w3.org/2000/svg" viewBox="0 0 249.87 68.74"><defs><style>.cls-1{fill:#fff;}.cls-2{fill:#46d83f;}</style></defs><title>Ресурс 6</title><g id="Слой_2" data-name="Слой 2"><g id="Слой_2-2" data-name="Слой 2"><path class="cls-1" d="M19.37,11.14V10H26v1.13Z"/><path class="cls-1" d="M26,11.14V10h6.6v1.13Z"/><path class="cls-1" d="M32.57,11.14V10h6.59v1.13Z"/><path class="cls-1" d="M39.16,11.14V10h6.6v1.13Z"/><path class="cls-1" d="M45.76,11.14V10h6.6v1.13Z"/><path class="cls-1" d="M56.8,11.2a8.57,8.57,0,0,1-2.13-2.59,6.37,6.37,0,0,1-.72-3A6.55,6.55,0,0,1,54.16,4a6.28,6.28,0,0,1,.6-1.49,7,7,0,0,1,.91-1.31A10.6,10.6,0,0,1,56.84,0l.81.81A7.49,7.49,0,0,0,55.93,3a5.72,5.72,0,0,0-.57,2.5,6,6,0,0,0,.57,2.56,7.08,7.08,0,0,0,1.72,2.24Z"/><path class="cls-1" d="M59,11.14V10h6.59v1.13Z"/><path class="cls-1" d="M67.74,0a8.32,8.32,0,0,1,2.14,2.58,6.48,6.48,0,0,1,.7,3,6.55,6.55,0,0,1-.21,1.68,6.91,6.91,0,0,1-.59,1.49,7.33,7.33,0,0,1-.9,1.32,9.62,9.62,0,0,1-1.16,1.14l-.82-.82a7.09,7.09,0,0,0,1.72-2.22,5.73,5.73,0,0,0,.57-2.51,6,6,0,0,0-.57-2.55A7,7,0,0,0,66.9.85Z"/><path class="cls-1" d="M72.15,11.14V10h6.6v1.13Z"/><path class="cls-1" d="M78.75,11.14V10h6.6v1.13Z"/><path class="cls-1" d="M85.35,11.14V10H92v1.13Z"/><path class="cls-1" d="M98.54,11.14V10h6.6v1.13Z"/><path class="cls-1" d="M105.14,11.14V10h6.6v1.13Z"/><path class="cls-1" d="M111.74,11.14V10h6.6v1.13Z"/><path class="cls-1" d="M118.34,11.14V10h6.59v1.13Z"/><path class="cls-1" d="M124.93,11.14V10h6.6v1.13Z"/><path class="cls-2" d="M144.73,11.14V10h6.59v1.13Z"/><path class="cls-2" d="M151.32,11.14V10h6.6v1.13Z"/><path class="cls-2" d="M157.92,11.14V10h6.6v1.13Z"/><path class="cls-2" d="M164.52,11.14V10h6.6v1.13Z"/><path class="cls-2" d="M177.71,11.14V10h6.6v1.13Z"/><path class="cls-2" d="M184.31,11.14V10h6.6v1.13Z"/><path class="cls-2" d="M190.91,11.14V10h6.6v1.13Z"/><path class="cls-2" d="M197.51,11.14V10h6.6v1.13Z"/><path class="cls-2" d="M217.3,11.14V10h6.6v1.13Z"/><path class="cls-2" d="M223.9,11.14V10h6.6v1.13Z"/><path class="cls-2" d="M230.5,11.14V10h6.59v1.13Z"/><path class="cls-2" d="M237.09,11.14V10h6.6v1.13Z"/><path class="cls-1" d="M14.58,24.4H13.2l4.09-9.54h1.39Z"/><path class="cls-1" d="M26,25.54V24.41h6.6v1.13Z"/><path class="cls-1" d="M32.57,25.54V24.41h6.59v1.13Z"/><path class="cls-1" d="M39.16,25.54V24.41h6.6v1.13Z"/><path class="cls-1" d="M47.57,24.4H46.18l4.09-9.54h1.4Z"/><path class="cls-1" d="M60.77,24.4H59.38l4.09-9.54h1.39Z"/><path class="cls-1" d="M72.15,25.54V24.41h6.6v1.13Z"/><path class="cls-1" d="M78.75,25.54V24.41h6.6v1.13Z"/><path class="cls-1" d="M94.42,14.86,96,16.39H94.52l-2-1.53Z"/><path class="cls-1" d="M100.35,24.4H99l4.09-9.54h1.4Z"/><path class="cls-1" d="M111.74,25.54V24.41h6.6v1.13Z"/><path class="cls-1" d="M118.34,25.54V24.41h6.59v1.13Z"/><path class="cls-1" d="M133.62,14.86l4.09,9.54h-1.39l-4.09-9.54Z"/><path class="cls-2" d="M139.94,24.4h-1.39l4.09-9.54H144Z"/><path class="cls-2" d="M151.32,25.54V24.41h6.6v1.13Z"/><path class="cls-2" d="M157.92,25.54V24.41h6.6v1.13Z"/><path class="cls-2" d="M173.59,14.86l1.54,1.53H173.7l-2-1.53Z"/><path class="cls-2" d="M179.53,24.4h-1.39l4.09-9.54h1.39Z"/><path class="cls-2" d="M190.91,25.54V24.41h6.6v1.13Z"/><path class="cls-2" d="M206.19,14.86l4.1,9.54h-1.4l-4.09-9.54Z"/><path class="cls-2" d="M212.51,24.4h-1.38l4.08-9.54h1.4Z"/><path class="cls-2" d="M223.9,25.54V24.41h6.6v1.13Z"/><path class="cls-2" d="M230.5,25.54V24.41h6.59v1.13Z"/><path class="cls-2" d="M245.78,14.86l4.09,9.54h-1.39l-4.09-9.54Z"/><path class="cls-1" d="M10.62,40a8.76,8.76,0,0,1-2.14-2.59,6.48,6.48,0,0,1-.71-3,6.48,6.48,0,0,1,.81-3.18A7.24,7.24,0,0,1,9.49,30a10.5,10.5,0,0,1,1.16-1.15l.82.81a7.33,7.33,0,0,0-1.72,2.22,5.72,5.72,0,0,0-.57,2.5,6,6,0,0,0,.57,2.56,6.94,6.94,0,0,0,1.72,2.24Z"/><path class="cls-1" d="M12.77,39.94V38.81h6.6v1.13Z"/><path class="cls-1" d="M19.37,39.94V38.81H26v1.13Z"/><path class="cls-1" d="M41.35,28.8a8.32,8.32,0,0,1,2.14,2.58,6.48,6.48,0,0,1,.7,3A6.55,6.55,0,0,1,44,36.05a6.91,6.91,0,0,1-.59,1.49,7.33,7.33,0,0,1-.9,1.32A10.41,10.41,0,0,1,41.33,40l-.82-.82A7.09,7.09,0,0,0,42.23,37a5.73,5.73,0,0,0,.57-2.51,6,6,0,0,0-.57-2.55,7,7,0,0,0-1.72-2.25Z"/><path class="cls-1" d="M54.17,38.8H52.78l4.09-9.54h1.4Z"/><path class="cls-1" d="M67.37,38.8H66l4.09-9.54h1.39Z"/><path class="cls-1" d="M72.15,39.94V38.81h6.6v1.13Z"/><path class="cls-1" d="M80.56,38.8H79.17l4.09-9.54h1.4Z"/><path class="cls-1" d="M93.76,38.8H92.37l4.09-9.54h1.39Z"/><path class="cls-1" d="M107,38.8h-1.39l4.09-9.54h1.4Z"/><path class="cls-1" d="M120.15,38.8h-1.39l4.09-9.54h1.39Z"/><path class="cls-2" d="M133.34,38.8H132L136,29.26h1.4Z"/><path class="cls-2" d="M146.54,38.8h-1.39l4.09-9.54h1.39Z"/><path class="cls-2" d="M151.32,39.94V38.81h6.6v1.13Z"/><path class="cls-2" d="M159.73,38.8h-1.39l4.09-9.54h1.4Z"/><path class="cls-2" d="M172.93,38.8h-1.39l4.09-9.54H177Z"/><path class="cls-2" d="M190.91,39.94V38.81h6.6v1.13Z"/><path class="cls-2" d="M197.51,39.94V38.81h6.6v1.13Z"/><path class="cls-2" d="M205.92,38.8h-1.39l4.09-9.54H210Z"/><path class="cls-2" d="M219.11,38.8h-1.39l4.09-9.54h1.4Z"/><path class="cls-2" d="M232.31,38.8h-1.39L235,29.26h1.39Z"/><path class="cls-2" d="M245.5,38.8h-1.39l4.09-9.54h1.4Z"/><path class="cls-1" d="M1.39,53.2H0l4.09-9.54H5.48Z"/><path class="cls-1" d="M6.18,54.34V53.21h6.59v1.13Z"/><path class="cls-1" d="M12.77,54.34V53.21h6.6v1.13Z"/><path class="cls-1" d="M19.37,54.34V53.21H26v1.13Z"/><path class="cls-1" d="M26,54.34V53.21h6.6v1.13Z"/><path class="cls-1" d="M34.38,53.2H33l4.09-9.54h1.39Z"/><path class="cls-1" d="M39.16,54.34V53.21h6.6v1.13Z"/><path class="cls-1" d="M47.57,53.2H46.18l4.09-9.54h1.4Z"/><path class="cls-1" d="M54.45,43.66l4.09,9.54H57.15l-4.09-9.54Z"/><path class="cls-1" d="M59,54.34V53.21h6.59v1.13Z"/><path class="cls-1" d="M65.55,54.34V53.21h6.6v1.13Z"/><path class="cls-1" d="M73.39,53.07A4.45,4.45,0,0,0,74,53a2.45,2.45,0,0,0,.54-.17,1,1,0,0,0,.35-.29.68.68,0,0,0,.13-.42.84.84,0,0,0,0-.29.74.74,0,0,0-.13-.21,1.46,1.46,0,0,0-.16-.19l-.16-.2a1,1,0,0,1-.13-.23,1,1,0,0,1-.05-.32,1,1,0,0,1,.07-.35.77.77,0,0,1,.19-.31,1,1,0,0,1,.3-.22,1,1,0,0,1,.41-.08,1,1,0,0,1,.51.13,1.33,1.33,0,0,1,.39.36,2,2,0,0,1,.24.51,2.49,2.49,0,0,1,.08.61,2.74,2.74,0,0,1-.2,1,2.13,2.13,0,0,1-.6.83,2.8,2.8,0,0,1-1,.57,4.19,4.19,0,0,1-1.39.21Z"/><path class="cls-1" d="M87.16,53.2H85.77l4.09-9.54h1.39Z"/><path class="cls-1" d="M92,54.34V53.21h6.59v1.13Z"/><path class="cls-1" d="M100.35,53.2H99l4.09-9.54h1.4Z"/><path class="cls-1" d="M113.55,53.2h-1.39l4.09-9.54h1.39Z"/><path class="cls-1" d="M118.34,54.34V53.21h6.59v1.13Z"/><path class="cls-1" d="M126.74,53.2h-1.38l4.09-9.54h1.39Z"/><path class="cls-2" d="M133.62,43.66l4.09,9.54h-1.39l-4.09-9.54Z"/><path class="cls-2" d="M138.13,54.34V53.21h6.6v1.13Z"/><path class="cls-2" d="M144.73,54.34V53.21h6.59v1.13Z"/><path class="cls-2" d="M152.56,53.07a4.68,4.68,0,0,0,.66,0,2.36,2.36,0,0,0,.53-.17.92.92,0,0,0,.35-.29.68.68,0,0,0,.13-.42.84.84,0,0,0,0-.29.57.57,0,0,0-.13-.21,1.46,1.46,0,0,0-.16-.19l-.16-.2a.71.71,0,0,1-.12-.23.77.77,0,0,1-.05-.32,1,1,0,0,1,.06-.35.89.89,0,0,1,.19-.31,1,1,0,0,1,.3-.22,1.07,1.07,0,0,1,.41-.08,1,1,0,0,1,.51.13,1.22,1.22,0,0,1,.39.36,1.5,1.5,0,0,1,.24.51,2.49,2.49,0,0,1,.08.61,2.56,2.56,0,0,1-.2,1,2.22,2.22,0,0,1-.59.83,2.94,2.94,0,0,1-1,.57,4.15,4.15,0,0,1-1.39.21Z"/><path class="cls-2" d="M166.33,53.2h-1.39L169,43.66h1.4Z"/><path class="cls-2" d="M173.2,43.66l4.1,9.54h-1.4l-4.09-9.54Z"/><path class="cls-2" d="M177.71,54.34V53.21h6.6v1.13Z"/><path class="cls-2" d="M184.31,54.34V53.21h6.6v1.13Z"/><path class="cls-2" d="M190.91,54.34V53.21h6.6v1.13Z"/><path class="cls-2" d="M199.32,53.2h-1.39L202,43.66h1.39Z"/><path class="cls-2" d="M204.11,54.34V53.21h6.59v1.13Z"/><path class="cls-2" d="M212.51,53.2h-1.38l4.08-9.54h1.4Z"/><path class="cls-2" d="M225.71,53.2h-1.39l4.09-9.54h1.39Z"/><path class="cls-2" d="M230.5,54.34V53.21h6.59v1.13Z"/><path class="cls-2" d="M238.9,53.2h-1.38l4.09-9.54H243Z"/><path class="cls-1" d="M47.57,67.6H46.18l4.09-9.54h1.4Z"/><path class="cls-1" d="M52.36,68.74V67.61H59v1.13Z"/><path class="cls-1" d="M59,68.74V67.61h6.59v1.13Z"/><path class="cls-1" d="M65.55,68.74V67.61h6.6v1.13Z"/><path class="cls-1" d="M72.15,68.74V67.61h6.6v1.13Z"/><path class="cls-1" d="M80.56,67.6H79.17l4.09-9.54h1.4Z"/><path class="cls-2" d="M126.74,67.6h-1.38l4.09-9.54h1.39Z"/><path class="cls-2" d="M131.53,68.74V67.61h6.6v1.13Z"/><path class="cls-2" d="M138.13,68.74V67.61h6.6v1.13Z"/><path class="cls-2" d="M144.73,68.74V67.61h6.59v1.13Z"/><path class="cls-2" d="M151.32,68.74V67.61h6.6v1.13Z"/><path class="cls-2" d="M159.73,67.6h-1.39l4.09-9.54h1.4Z"/></g></g></svg>