<svg xmlns="http://www.w3.org/2000/svg" viewBox="0 0 390.58 87.53"><defs><style>.cls-1{fill:#fff;}.cls-2{fill:#46d83f;}</style></defs><title>Ресурс 4</title><g id="Слой_2" data-name="Слой 2"><g id="Слой_2-2" data-name="Слой 2"><path class="cls-1" d="M7.25,1.13V0h6.6V1.13Z"/><path class="cls-1" d="M13.85,1.13V0h6.6V1.13Z"/><path class="cls-1" d="M20.45,1.13V0h6.6V1.13Z"/><path class="cls-1" d="M27.05,1.13V0h6.59V1.13Z"/><path class="cls-1" d="M33.64,1.13V0h6.6V1.13Z"/><path class="cls-1" d="M40.24,1.13V0h6.6V1.13Z"/><path class="cls-1" d="M46.84,1.13V0h6.6V1.13Z"/><path class="cls-1" d="M66.63,1.13V0h6.6V1.13Z"/><path class="cls-1" d="M73.23,1.13V0h6.6V1.13Z"/><path class="cls-1" d="M79.83,1.13V0h6.6V1.13Z"/><path class="cls-1" d="M106.22,1.13V0h6.6V1.13Z"/><path class="cls-1" d="M112.82,1.13V0h6.59V1.13Z"/><path class="cls-1" d="M119.41,1.13V0H126V1.13Z"/><path class="cls-1" d="M126,1.13V0h6.6V1.13Z"/><path class="cls-1" d="M132.61,1.13V0h6.6V1.13Z"/><path class="cls-1" d="M139.21,1.13V0h6.59V1.13Z"/><path class="cls-1" d="M145.8,1.13V0h6.6V1.13Z"/><path class="cls-1" d="M165.6,1.13V0h6.6V1.13Z"/><path class="cls-1" d="M172.2,1.13V0h6.59V1.13Z"/><path class="cls-1" d="M205.18,1.13V0h6.6V1.13Z"/><path class="cls-2" d="M225,1.13V0h6.59V1.13Z"/><path class="cls-2" d="M231.57,1.13V0h6.6V1.13Z"/><path class="cls-2" d="M238.17,1.13V0h6.6V1.13Z"/><path class="cls-2" d="M244.77,1.13V0h6.6V1.13Z"/><path class="cls-2" d="M251.37,1.13V0H258V1.13Z"/><path class="cls-2" d="M258,1.13V0h6.6V1.13Z"/><path class="cls-2" d="M264.56,1.13V0h6.6V1.13Z"/><path class="cls-2" d="M284.36,1.13V0H291V1.13Z"/><path class="cls-2" d="M291,1.13V0h6.6V1.13Z"/><path class="cls-2" d="M297.55,1.13V0h6.6V1.13Z"/><path class="cls-2" d="M304.15,1.13V0h6.6V1.13Z"/><path class="cls-2" d="M310.75,1.13V0h6.59V1.13Z"/><path class="cls-2" d="M317.34,1.13V0h6.6V1.13Z"/><path class="cls-2" d="M323.94,1.13V0h6.6V1.13Z"/><path class="cls-2" d="M343.73,1.13V0h6.6V1.13Z"/><path class="cls-2" d="M350.33,1.13V0h6.6V1.13Z"/><path class="cls-2" d="M383.32,1.13V0h6.6V1.13Z"/><path class="cls-1" d="M0,15.53v-12H1.32v12Z"/><path class="cls-1" d="M52.78,15.53v-12H54.1v12Z"/><path class="cls-1" d="M59.38,15.53v-12H60.7v12Z"/><path class="cls-1" d="M85.77,15.53v-12h1.32v12Z"/><path class="cls-1" d="M99,15.53v-12h1.32v12Z"/><path class="cls-1" d="M151.75,15.53v-12h1.31v12Z"/><path class="cls-1" d="M158.34,15.53v-12h1.32v12Z"/><path class="cls-1" d="M178.14,15.53v-12h1.32v12Z"/><path class="cls-1" d="M197.93,15.53v-12h1.32v12Z"/><path class="cls-1" d="M211.13,15.53v-12h1.31v12Z"/><path class="cls-2" d="M217.72,15.53v-12H219v12Z"/><path class="cls-2" d="M270.5,15.53v-12h1.32v12Z"/><path class="cls-2" d="M277.1,15.53v-12h1.32v12Z"/><path class="cls-2" d="M329.88,15.53v-12h1.32v12Z"/><path class="cls-2" d="M336.48,15.53v-12h1.32v12Z"/><path class="cls-2" d="M356.27,15.53v-12h1.32v12Z"/><path class="cls-2" d="M376.07,15.53v-12h1.31v12Z"/><path class="cls-2" d="M389.26,15.53v-12h1.32v12Z"/><path class="cls-1" d="M0,29.93v-12H1.32v12Z"/><path class="cls-1" d="M17.15,29.93V28.8h6.6v1.13Z"/><path class="cls-1" d="M23.75,29.93V28.8h6.6v1.13Z"/><path class="cls-1" d="M30.35,29.93V28.8h6.59v1.13Z"/><path class="cls-1" d="M36.94,29.93V28.8h6.6v1.13Z"/><path class="cls-1" d="M43.54,29.93V28.8h6.6v1.13Z"/><path class="cls-1" d="M52.78,29.93v-12H54.1v12Z"/><path class="cls-1" d="M59.38,29.93v-12H60.7v12Z"/><path class="cls-1" d="M85.77,29.93v-12h1.32v12Z"/><path class="cls-1" d="M99,29.93v-12h1.32v12Z"/><path class="cls-1" d="M129.31,29.93V28.8h6.6v1.13Z"/><path class="cls-1" d="M135.91,29.93V28.8h6.6v1.13Z"/><path class="cls-1" d="M142.51,29.93V28.8h6.59v1.13Z"/><path class="cls-1" d="M151.75,29.93v-12h1.31v12Z"/><path class="cls-1" d="M158.34,29.93v-12h1.32v12Z"/><path class="cls-1" d="M184.73,29.93v-12h1.32v12Z"/><path class="cls-1" d="M188.69,29.93V28.8h6.6v1.13Z"/><path class="cls-1" d="M197.93,29.93v-12h1.32v12Z"/><path class="cls-1" d="M211.13,29.93v-12h1.31v12Z"/><path class="cls-2" d="M217.72,29.93v-12H219v12Z"/><path class="cls-2" d="M248.07,29.93V28.8h6.6v1.13Z"/><path class="cls-2" d="M254.67,29.93V28.8h6.59v1.13Z"/><path class="cls-2" d="M261.26,29.93V28.8h6.6v1.13Z"/><path class="cls-2" d="M270.5,29.93v-12h1.32v12Z"/><path class="cls-2" d="M277.1,29.93v-12h1.32v12Z"/><path class="cls-2" d="M307.45,29.93V28.8H314v1.13Z"/><path class="cls-2" d="M314,29.93V28.8h6.6v1.13Z"/><path class="cls-2" d="M320.64,29.93V28.8h6.6v1.13Z"/><path class="cls-2" d="M329.88,29.93v-12h1.32v12Z"/><path class="cls-2" d="M336.48,29.93v-12h1.32v12Z"/><path class="cls-2" d="M362.87,29.93v-12h1.32v12Z"/><path class="cls-2" d="M366.83,29.93V28.8h6.59v1.13Z"/><path class="cls-2" d="M376.07,29.93v-12h1.31v12Z"/><path class="cls-2" d="M389.26,29.93v-12h1.32v12Z"/><path class="cls-1" d="M0,44.33v-12H1.32v12Z"/><path class="cls-1" d="M13.2,44.33v-12h1.31v12Z"/><path class="cls-1" d="M17.15,44.33V43.2h6.6v1.13Z"/><path class="cls-1" d="M23.75,44.33V43.2h6.6v1.13Z"/><path class="cls-1" d="M30.35,44.33V43.2h6.59v1.13Z"/><path class="cls-1" d="M36.94,44.33V43.2h6.6v1.13Z"/><path class="cls-1" d="M43.54,44.33V43.2h6.6v1.13Z"/><path class="cls-1" d="M59.38,44.33v-12H60.7v12Z"/><path class="cls-1" d="M85.77,44.33v-12h1.32v12Z"/><path class="cls-1" d="M99,44.33v-12h1.32v12Z"/><path class="cls-1" d="M125.36,44.33v-12h1.31v12Z"/><path class="cls-1" d="M135.91,44.33V43.2h6.6v1.13Z"/><path class="cls-1" d="M142.51,44.33V43.2h6.59v1.13Z"/><path class="cls-1" d="M158.34,44.33v-12h1.32v12Z"/><path class="cls-1" d="M211.13,44.33v-12h1.31v12Z"/><path class="cls-2" d="M217.72,44.33v-12H219v12Z"/><path class="cls-2" d="M244.11,44.33v-12h1.32v12Z"/><path class="cls-2" d="M254.67,44.33V43.2h6.59v1.13Z"/><path class="cls-2" d="M261.26,44.33V43.2h6.6v1.13Z"/><path class="cls-2" d="M277.1,44.33v-12h1.32v12Z"/><path class="cls-2" d="M303.49,44.33v-12h1.32v12Z"/><path class="cls-2" d="M307.45,44.33V43.2H314v1.13Z"/><path class="cls-2" d="M314,44.33V43.2h6.6v1.13Z"/><path class="cls-2" d="M320.64,44.33V43.2h6.6v1.13Z"/><path class="cls-2" d="M336.48,44.33v-12h1.32v12Z"/><path class="cls-2" d="M389.26,44.33v-12h1.32v12Z"/><path class="cls-1" d="M0,58.73v-12H1.32v12Z"/><path class="cls-1" d="M4,58.73V57.6h6.59v1.13Z"/><path class="cls-1" d="M10.55,58.73V57.6h6.6v1.13Z"/><path class="cls-1" d="M17.15,58.73V57.6h6.6v1.13Z"/><path class="cls-1" d="M23.75,58.73V57.6h6.6v1.13Z"/><path class="cls-1" d="M30.35,58.73V57.6h6.59v1.13Z"/><path class="cls-1" d="M52.78,58.73v-12H54.1v12Z"/><path class="cls-1" d="M59.38,58.73v-12H60.7v12Z"/><path class="cls-1" d="M85.77,58.73v-12h1.32v12Z"/><path class="cls-1" d="M99,58.73v-12h1.32v12Z"/><path class="cls-1" d="M125.36,58.73v-12h1.31v12Z"/><path class="cls-1" d="M132,58.73v-12h1.32v12Z"/><path class="cls-1" d="M151.75,58.73v-12h1.31v12Z"/><path class="cls-1" d="M158.34,58.73v-12h1.32v12Z"/><path class="cls-1" d="M175.49,58.73V57.6h6.6v1.13Z"/><path class="cls-1" d="M211.13,58.73v-12h1.31v12Z"/><path class="cls-2" d="M217.72,58.73v-12H219v12Z"/><path class="cls-2" d="M244.11,58.73v-12h1.32v12Z"/><path class="cls-2" d="M250.71,58.73v-12H252v12Z"/><path class="cls-2" d="M270.5,58.73v-12h1.32v12Z"/><path class="cls-2" d="M277.1,58.73v-12h1.32v12Z"/><path class="cls-2" d="M307.45,58.73V57.6H314v1.13Z"/><path class="cls-2" d="M314,58.73V57.6h6.6v1.13Z"/><path class="cls-2" d="M320.64,58.73V57.6h6.6v1.13Z"/><path class="cls-2" d="M329.88,58.73v-12h1.32v12Z"/><path class="cls-2" d="M336.48,58.73v-12h1.32v12Z"/><path class="cls-2" d="M353.63,58.73V57.6h6.6v1.13Z"/><path class="cls-2" d="M389.26,58.73v-12h1.32v12Z"/><path class="cls-1" d="M4,73.13V72h6.59v1.13Z"/><path class="cls-1" d="M10.55,73.13V72h6.6v1.13Z"/><path class="cls-1" d="M17.15,73.13V72h6.6v1.13Z"/><path class="cls-1" d="M23.75,73.13V72h6.6v1.13Z"/><path class="cls-1" d="M30.35,73.13V72h6.59v1.13Z"/><path class="cls-1" d="M39.59,73.13v-12H40.9v12Z"/><path class="cls-1" d="M52.78,73.13v-12H54.1v12Z"/><path class="cls-1" d="M59.38,73.13v-12H60.7v12Z"/><path class="cls-1" d="M85.77,73.13v-12h1.32v12Z"/><path class="cls-1" d="M99,73.13v-12h1.32v12Z"/><path class="cls-1" d="M125.36,73.13v-12h1.31v12Z"/><path class="cls-1" d="M129.31,73.13V72h6.6v1.13Z"/><path class="cls-1" d="M138.55,73.13v-12h1.32v12Z"/><path class="cls-1" d="M151.75,73.13v-12h1.31v12Z"/><path class="cls-1" d="M158.34,73.13v-12h1.32v12Z"/><path class="cls-1" d="M171.54,73.13v-12h1.32v12Z"/><path class="cls-1" d="M184.73,73.13v-12h1.32v12Z"/><path class="cls-1" d="M211.13,73.13v-12h1.31v12Z"/><path class="cls-2" d="M217.72,73.13v-12H219v12Z"/><path class="cls-2" d="M244.11,73.13v-12h1.32v12Z"/><path class="cls-2" d="M248.07,73.13V72h6.6v1.13Z"/><path class="cls-2" d="M257.31,73.13v-12h1.32v12Z"/><path class="cls-2" d="M270.5,73.13v-12h1.32v12Z"/><path class="cls-2" d="M277.1,73.13v-12h1.32v12Z"/><path class="cls-2" d="M303.49,73.13v-12h1.32v12Z"/><path class="cls-2" d="M307.45,73.13V72H314v1.13Z"/><path class="cls-2" d="M314,73.13V72h6.6v1.13Z"/><path class="cls-2" d="M320.64,73.13V72h6.6v1.13Z"/><path class="cls-2" d="M336.48,73.13v-12h1.32v12Z"/><path class="cls-2" d="M349.68,73.13v-12H351v12Z"/><path class="cls-2" d="M362.87,73.13v-12h1.32v12Z"/><path class="cls-2" d="M389.26,73.13v-12h1.32v12Z"/><path class="cls-1" d="M0,87.53v-12H1.32v12Z"/><path class="cls-1" d="M4,87.53V86.4h6.59v1.13Z"/><path class="cls-1" d="M10.55,87.53V86.4h6.6v1.13Z"/><path class="cls-1" d="M17.15,87.53V86.4h6.6v1.13Z"/><path class="cls-1" d="M23.75,87.53V86.4h6.6v1.13Z"/><path class="cls-1" d="M30.35,87.53V86.4h6.59v1.13Z"/><path class="cls-1" d="M36.94,87.53V86.4h6.6v1.13Z"/><path class="cls-1" d="M43.54,87.53V86.4h6.6v1.13Z"/><path class="cls-1" d="M52.78,87.53v-12H54.1v12Z"/><path class="cls-1" d="M59.38,87.53v-12H60.7v12Z"/><path class="cls-1" d="M63.33,87.53V86.4h6.6v1.13Z"/><path class="cls-1" d="M69.93,87.53V86.4h6.6v1.13Z"/><path class="cls-1" d="M76.53,87.53V86.4h6.6v1.13Z"/><path class="cls-1" d="M85.77,87.53v-12h1.32v12Z"/><path class="cls-1" d="M99,87.53v-12h1.32v12Z"/><path class="cls-1" d="M102.92,87.53V86.4h6.6v1.13Z"/><path class="cls-1" d="M109.52,87.53V86.4h6.6v1.13Z"/><path class="cls-1" d="M116.12,87.53V86.4h6.59v1.13Z"/><path class="cls-1" d="M122.71,87.53V86.4h6.6v1.13Z"/><path class="cls-1" d="M129.31,87.53V86.4h6.6v1.13Z"/><path class="cls-1" d="M135.91,87.53V86.4h6.6v1.13Z"/><path class="cls-1" d="M142.51,87.53V86.4h6.59v1.13Z"/><path class="cls-1" d="M151.75,87.53v-12h1.31v12Z"/><path class="cls-1" d="M158.34,87.53v-12h1.32v12Z"/><path class="cls-1" d="M162.3,87.53V86.4h6.6v1.13Z"/><path class="cls-1" d="M171.54,87.53v-12h1.32v12Z"/><path class="cls-1" d="M191.33,87.53v-12h1.32v12Z"/><path class="cls-1" d="M195.29,87.53V86.4h6.59v1.13Z"/><path class="cls-1" d="M201.88,87.53V86.4h6.6v1.13Z"/><path class="cls-1" d="M211.13,87.53v-12h1.31v12Z"/><path class="cls-2" d="M217.72,87.53v-12H219v12Z"/><path class="cls-2" d="M221.68,87.53V86.4h6.6v1.13Z"/><path class="cls-2" d="M228.28,87.53V86.4h6.59v1.13Z"/><path class="cls-2" d="M234.87,87.53V86.4h6.6v1.13Z"/><path class="cls-2" d="M241.47,87.53V86.4h6.6v1.13Z"/><path class="cls-2" d="M248.07,87.53V86.4h6.6v1.13Z"/><path class="cls-2" d="M254.67,87.53V86.4h6.59v1.13Z"/><path class="cls-2" d="M261.26,87.53V86.4h6.6v1.13Z"/><path class="cls-2" d="M270.5,87.53v-12h1.32v12Z"/><path class="cls-2" d="M277.1,87.53v-12h1.32v12Z"/><path class="cls-2" d="M281.06,87.53V86.4h6.59v1.13Z"/><path class="cls-2" d="M287.65,87.53V86.4h6.6v1.13Z"/><path class="cls-2" d="M294.25,87.53V86.4h6.6v1.13Z"/><path class="cls-2" d="M300.85,87.53V86.4h6.6v1.13Z"/><path class="cls-2" d="M307.45,87.53V86.4H314v1.13Z"/><path class="cls-2" d="M314,87.53V86.4h6.6v1.13Z"/><path class="cls-2" d="M320.64,87.53V86.4h6.6v1.13Z"/><path class="cls-2" d="M329.88,87.53v-12h1.32v12Z"/><path class="cls-2" d="M336.48,87.53v-12h1.32v12Z"/><path class="cls-2" d="M340.44,87.53V86.4H347v1.13Z"/><path class="cls-2" d="M349.68,87.53v-12H351v12Z"/><path class="cls-2" d="M369.47,87.53v-12h1.32v12Z"/><path class="cls-2" d="M373.42,87.53V86.4H380v1.13Z"/><path class="cls-2" d="M380,87.53V86.4h6.6v1.13Z"/><path class="cls-2" d="M389.26,87.53v-12h1.32v12Z"/></g></g></svg>