<svg xmlns="http://www.w3.org/2000/svg" viewBox="0 0 234.46 101.93"><defs><style>.cls-1{fill:#fff;}.cls-2{fill:#46d83f;}</style></defs><title>Ресурс 5</title><g id="Слой_2" data-name="Слой 2"><g id="Слой_2-2" data-name="Слой 2"><path class="cls-1" d="M32.57,1.13V0h6.59V1.13Z"/><path class="cls-1" d="M30.41,15.59A8.76,8.76,0,0,1,28.27,13a6.48,6.48,0,0,1-.71-3,6.55,6.55,0,0,1,.21-1.68,6.28,6.28,0,0,1,.6-1.49,7.31,7.31,0,0,1,.91-1.31,10.6,10.6,0,0,1,1.17-1.15l.81.82a7.33,7.33,0,0,0-1.72,2.21A5.72,5.72,0,0,0,29,9.92a6,6,0,0,0,.57,2.56,7,7,0,0,0,1.72,2.24Z"/><path class="cls-1" d="M32.57,15.53V14.4h6.59v1.13Z"/><path class="cls-1" d="M41.35,4.39A8.32,8.32,0,0,1,43.49,7,6.77,6.77,0,0,1,44,11.64a6.71,6.71,0,0,1-.59,1.49,7.33,7.33,0,0,1-.9,1.32,10.41,10.41,0,0,1-1.16,1.14l-.82-.82a7.09,7.09,0,0,0,1.72-2.22,5.72,5.72,0,0,0,.57-2.5,6,6,0,0,0-.57-2.56,7,7,0,0,0-1.72-2.25Z"/><path class="cls-1" d="M6.18,29.93V28.8h6.59v1.13Z"/><path class="cls-1" d="M12.77,29.93V28.8h6.6v1.13Z"/><path class="cls-1" d="M19.37,29.93V28.8H26v1.13Z"/><path class="cls-1" d="M32.57,29.93V28.8h6.59v1.13Z"/><path class="cls-1" d="M52.36,29.93V28.8H59v1.13Z"/><path class="cls-1" d="M59,29.93V28.8h6.59v1.13Z"/><path class="cls-1" d="M72.15,29.93V28.8h6.6v1.13Z"/><path class="cls-1" d="M85.35,29.93V28.8H92v1.13Z"/><path class="cls-1" d="M98.54,29.93V28.8h6.6v1.13Z"/><path class="cls-1" d="M105.14,29.93V28.8h6.6v1.13Z"/><path class="cls-2" d="M131.53,29.93V28.8h6.6v1.13Z"/><path class="cls-2" d="M138.13,29.93V28.8h6.6v1.13Z"/><path class="cls-2" d="M151.32,29.93V28.8h6.6v1.13Z"/><path class="cls-2" d="M171.12,29.93V28.8h6.59v1.13Z"/><path class="cls-2" d="M177.71,29.93V28.8h6.6v1.13Z"/><path class="cls-2" d="M184.31,29.93V28.8h6.6v1.13Z"/><path class="cls-2" d="M197.51,29.93V28.8h6.6v1.13Z"/><path class="cls-2" d="M210.7,29.93V28.8h6.6v1.13Z"/><path class="cls-2" d="M217.3,29.93V28.8h6.6v1.13Z"/><path class="cls-1" d="M1.39,43.19H0l4.09-9.54H5.48Z"/><path class="cls-1" d="M12.77,44.33V43.2h6.6v1.13Z"/><path class="cls-1" d="M19.37,44.33V43.2H26v1.13Z"/><path class="cls-1" d="M28.61,44.33v-12h1.32v12Z"/><path class="cls-1" d="M41.81,44.33v-12h1.32v12Z"/><path class="cls-1" d="M47.57,43.19H46.18l4.09-9.54h1.4Z"/><path class="cls-1" d="M59,44.33V43.2h6.59v1.13Z"/><path class="cls-1" d="M68,33.65l1.53,1.53H68.13l-2-1.53Z"/><path class="cls-1" d="M81.39,44.33v-12h1.32v12Z"/><path class="cls-1" d="M95.86,36.57H94.63l-.19-2.92h1.61Z"/><path class="cls-1" d="M98.54,44.33V43.2h6.6v1.13Z"/><path class="cls-1" d="M113.82,33.65l4.1,9.54h-1.39l-4.09-9.54Z"/><path class="cls-2" d="M126.74,43.19h-1.38l4.09-9.54h1.39Z"/><path class="cls-2" d="M138.13,44.33V43.2h6.6v1.13Z"/><path class="cls-2" d="M147.2,33.65l1.53,1.53H147.3l-2-1.53Z"/><path class="cls-2" d="M160.56,44.33v-12h1.32v12Z"/><path class="cls-2" d="M166.33,43.19h-1.39L169,33.65h1.4Z"/><path class="cls-2" d="M177.71,44.33V43.2h6.6v1.13Z"/><path class="cls-2" d="M193,33.65l4.09,9.54H195.7l-4.09-9.54Z"/><path class="cls-2" d="M208,36.57h-1.23l-.19-2.92h1.61Z"/><path class="cls-2" d="M210.7,44.33V43.2h6.6v1.13Z"/><path class="cls-2" d="M226,33.65l4.1,9.54h-1.39l-4.09-9.54Z"/><path class="cls-1" d="M1.66,48.05l4.1,9.54H4.37L.28,48.05Z"/><path class="cls-1" d="M6.18,58.73V57.6h6.59v1.13Z"/><path class="cls-1" d="M12.77,58.73V57.6h6.6v1.13Z"/><path class="cls-1" d="M28.05,48.05l4.1,9.54H30.76l-4.09-9.54Z"/><path class="cls-1" d="M41.81,58.73v-12h1.32v12Z"/><path class="cls-1" d="M56.8,58.79a8.57,8.57,0,0,1-2.13-2.59,6.34,6.34,0,0,1-.72-3,6.55,6.55,0,0,1,.21-1.68,6.28,6.28,0,0,1,.6-1.49,7.31,7.31,0,0,1,.91-1.31,10.6,10.6,0,0,1,1.17-1.15l.81.82a7.33,7.33,0,0,0-1.72,2.21,5.72,5.72,0,0,0-.57,2.5,6,6,0,0,0,.57,2.56,7,7,0,0,0,1.72,2.24Z"/><path class="cls-1" d="M59,58.73V57.6h6.59v1.13Z"/><path class="cls-1" d="M68.2,58.73v-12h1.32v12Z"/><path class="cls-1" d="M81.39,58.73v-12h1.32v12Z"/><path class="cls-1" d="M94.59,58.73v-12h1.32v12Z"/><path class="cls-1" d="M107.78,58.73v-12h1.32v12Z"/><path class="cls-2" d="M121,58.73v-12h1.32v12Z"/><path class="cls-2" d="M136,58.79a8.57,8.57,0,0,1-2.13-2.59,6.33,6.33,0,0,1-.71-3,6.55,6.55,0,0,1,.21-1.68,6.26,6.26,0,0,1,.59-1.49,7.86,7.86,0,0,1,.91-1.31A11.56,11.56,0,0,1,136,47.59l.81.82a7.13,7.13,0,0,0-1.71,2.21,5.59,5.59,0,0,0-.58,2.5,5.88,5.88,0,0,0,.58,2.56,6.8,6.8,0,0,0,1.71,2.24Z"/><path class="cls-2" d="M138.13,58.73V57.6h6.6v1.13Z"/><path class="cls-2" d="M147.37,58.73v-12h1.32v12Z"/><path class="cls-2" d="M160.56,58.73v-12h1.32v12Z"/><path class="cls-2" d="M177.71,58.73V57.6h6.6v1.13Z"/><path class="cls-2" d="M184.31,58.73V57.6h6.6v1.13Z"/><path class="cls-2" d="M192.72,57.59h-1.39l4.09-9.54h1.4Z"/><path class="cls-2" d="M206.75,58.73v-12h1.32v12Z"/><path class="cls-2" d="M219.94,58.73v-12h1.32v12Z"/><path class="cls-2" d="M233.14,58.73v-12h1.32v12Z"/><path class="cls-1" d="M2.22,73.13v-12H3.54v12Z"/><path class="cls-1" d="M6.18,73.13V72h6.59v1.13Z"/><path class="cls-1" d="M12.77,73.13V72h6.6v1.13Z"/><path class="cls-1" d="M19.37,73.13V72H26v1.13Z"/><path class="cls-1" d="M27.78,72H26.39l4.09-9.54h1.4Z"/><path class="cls-1" d="M32.57,73.13V72h6.59v1.13Z"/><path class="cls-1" d="M41.81,73.13v-12h1.32v12Z"/><path class="cls-1" d="M47.85,62.45,51.94,72H50.55l-4.09-9.54Z"/><path class="cls-1" d="M52.36,73.13V72H59v1.13Z"/><path class="cls-1" d="M59,73.13V72h6.59v1.13Z"/><path class="cls-1" d="M66.79,71.86a3.5,3.5,0,0,0,.66,0,1.94,1.94,0,0,0,.53-.17.84.84,0,0,0,.35-.29.65.65,0,0,0,.13-.41.79.79,0,0,0,0-.29.78.78,0,0,0-.12-.22l-.17-.19c-.05-.06-.11-.12-.16-.19a.9.9,0,0,1-.12-.24.74.74,0,0,1,0-.32,1,1,0,0,1,.06-.35.89.89,0,0,1,.19-.31.81.81,0,0,1,.3-.21.91.91,0,0,1,.41-.09,1.07,1.07,0,0,1,.51.13,1.22,1.22,0,0,1,.39.36,1.46,1.46,0,0,1,.24.52,2,2,0,0,1,.08.6,2.52,2.52,0,0,1-.2,1,2.33,2.33,0,0,1-.59.84,2.93,2.93,0,0,1-1,.56,4.15,4.15,0,0,1-1.39.21Z"/><path class="cls-1" d="M81.39,73.13v-12h1.32v12Z"/><path class="cls-1" d="M85.35,73.13V72H92v1.13Z"/><path class="cls-1" d="M94.59,73.13v-12h1.32v12Z"/><path class="cls-1" d="M107.78,73.13v-12h1.32v12Z"/><path class="cls-1" d="M111.74,73.13V72h6.6v1.13Z"/><path class="cls-1" d="M121,73.13v-12h1.32v12Z"/><path class="cls-2" d="M127,62.45l4.1,9.54h-1.4l-4.09-9.54Z"/><path class="cls-2" d="M131.53,73.13V72h6.6v1.13Z"/><path class="cls-2" d="M138.13,73.13V72h6.6v1.13Z"/><path class="cls-2" d="M146,71.86a3.44,3.44,0,0,0,.66,0,1.94,1.94,0,0,0,.53-.17.84.84,0,0,0,.35-.29.65.65,0,0,0,.13-.41.63.63,0,0,0,0-.29.78.78,0,0,0-.12-.22c-.05-.07-.11-.13-.16-.19l-.17-.19a.9.9,0,0,1-.12-.24.93.93,0,0,1,0-.32,1,1,0,0,1,.06-.35,1.08,1.08,0,0,1,.19-.31.81.81,0,0,1,.3-.21.91.91,0,0,1,.41-.09,1.14,1.14,0,0,1,.52.13,1.19,1.19,0,0,1,.38.36,1.46,1.46,0,0,1,.24.52,2,2,0,0,1,.08.6,2.7,2.7,0,0,1-.19,1,2.49,2.49,0,0,1-.6.84,2.93,2.93,0,0,1-1,.56,4.15,4.15,0,0,1-1.39.21Z"/><path class="cls-2" d="M160.56,73.13v-12h1.32v12Z"/><path class="cls-2" d="M166.61,62.45,170.7,72h-1.39l-4.09-9.54Z"/><path class="cls-2" d="M171.12,73.13V72h6.59v1.13Z"/><path class="cls-2" d="M177.71,73.13V72h6.6v1.13Z"/><path class="cls-2" d="M184.31,73.13V72h6.6v1.13Z"/><path class="cls-2" d="M193.55,73.13v-12h1.32v12Z"/><path class="cls-2" d="M197.51,73.13V72h6.6v1.13Z"/><path class="cls-2" d="M206.75,73.13v-12h1.32v12Z"/><path class="cls-2" d="M219.94,73.13v-12h1.32v12Z"/><path class="cls-2" d="M223.9,73.13V72h6.6v1.13Z"/><path class="cls-2" d="M233.14,73.13v-12h1.32v12Z"/><path class="cls-1" d="M52.36,87.53V86.4H59v1.13Z"/><path class="cls-1" d="M59,87.53V86.4h6.59v1.13Z"/><path class="cls-1" d="M67.37,86.39H66l4.09-9.54h1.39Z"/><path class="cls-1" d="M81.39,87.53v-12h1.32v12Z"/><path class="cls-2" d="M131.53,87.53V86.4h6.6v1.13Z"/><path class="cls-2" d="M138.13,87.53V86.4h6.6v1.13Z"/><path class="cls-2" d="M146.54,86.39h-1.39l4.09-9.54h1.39Z"/><path class="cls-2" d="M160.56,87.53v-12h1.32v12Z"/><path class="cls-1" d="M48.4,101.93v-12h1.32v12Z"/><path class="cls-1" d="M52.36,101.93V100.8H59v1.13Z"/><path class="cls-1" d="M59,101.93V100.8h6.59v1.13Z"/><path class="cls-1" d="M65.55,101.93V100.8h6.6v1.13Z"/><path class="cls-1" d="M74,100.79H72.57l4.09-9.54h1.4Z"/><path class="cls-2" d="M127.58,101.93v-12h1.31v12Z"/><path class="cls-2" d="M131.53,101.93V100.8h6.6v1.13Z"/><path class="cls-2" d="M138.13,101.93V100.8h6.6v1.13Z"/><path class="cls-2" d="M144.73,101.93V100.8h6.59v1.13Z"/><path class="cls-2" d="M153.13,100.79h-1.38l4.09-9.54h1.39Z"/></g></g></svg>