<svg xmlns="http://www.w3.org/2000/svg" viewBox="0 0 1428.66 349.48"><defs><style>.cls-1{fill:#e8e8e8;}.cls-2{fill:#131313;}</style></defs><title>Ресурс 1</title><g id="Слой_2" data-name="Слой 2"><g id="Слой_1-2" data-name="Слой 1"><polygon class="cls-1" points="1428.66 349.48 36.73 349.48 0 0 1391.93 0 1428.66 349.48"/><path class="cls-2" d="M122.77,226.68,156.62,92.49h23.74L137.68,257H99.14L91.05,92.49h26.08Z"/><path class="cls-2" d="M210.9,161.82h35.49l-2.47,23.5H208.43l-5.06,48.18H248L245.55,257H175l17.29-164.5h70.5L260.37,116H215.72Z"/><path class="cls-2" d="M315.58,257c-1-4.23-1.63-6.81-.23-20.21l2.72-25.85c1.61-15.28-3-20.92-14.72-20.92h-8.93l-7,67H261.53l17.29-164.5h39c26.79,0,37,12.46,34.33,37.84l-1.36,12.93c-1.78,16.92-8.34,28-20.43,33.37,12.36,5.41,15.28,17.86,13.48,35L341.18,237c-.84,8-1.22,13.87.72,20ZM302.2,116l-5.31,50.53H307c9.63,0,16-4.23,17.34-17.39l1.7-16.22c1.23-11.75-2.22-16.92-11.38-16.92Z"/><path class="cls-2" d="M365.77,92.49h79.9L443.2,116h-27L401.36,257H375.51l14.82-141h-27Z"/><path class="cls-2" d="M475.51,161.82H511l-2.47,23.5H473L468,233.49h44.65L510.16,257h-70.5L457,92.49h70.5L525,116H480.33Z"/><path class="cls-2" d="M629.68,92.49l-35.42,79.9,20,84.6H587L572.7,191.9,544.47,257H520.27l37.8-84.6-18.63-79.9h26.79l13.13,60.63,26.35-60.63Z"/><path class="cls-2" d="M634.69,132c2.77-26.32,18.21-41.36,43.59-41.36s37.66,15,34.9,41.36l-9,85.54c-2.77,26.32-18.21,41.36-43.59,41.36s-37.66-15-34.9-41.36Zm16.69,87.19c-1.24,11.75,3.47,16.22,11.69,16.22s13.86-4.46,15.1-16.22l9.34-88.83c1.24-11.75-3.47-16.22-11.69-16.22s-13.87,4.46-15.1,16.22Z"/><path class="cls-2" d="M752.19,165.58h33.37l-2.47,23.5H749.72L742.58,257H716.73L734,92.49h68.39L799.94,116H757.4Z"/><path class="cls-2" d="M839.77,226.68,873.61,92.49h23.74L854.68,257H816.14L808,92.49h26.08Z"/><path class="cls-2" d="M902.83,132c2.77-26.32,18.21-41.36,43.59-41.36s37.66,15,34.9,41.36l-9,85.54c-2.77,26.32-18.21,41.36-43.59,41.36s-37.66-15-34.9-41.36Zm16.69,87.19c-1.24,11.75,3.47,16.22,11.69,16.22s13.86-4.46,15.1-16.22l9.34-88.83c1.24-11.75-3.47-16.22-11.69-16.22s-13.87,4.46-15.1,16.22Z"/><path class="cls-2" d="M1038.92,257c-1-4.23-1.63-6.81-.23-20.21l2.72-25.85c1.61-15.28-3-20.92-14.72-20.92h-8.93l-7,67H984.87l17.29-164.5h39c26.79,0,37,12.46,34.33,37.84l-1.36,12.93c-1.78,16.92-8.34,28-20.43,33.37,12.36,5.41,15.28,17.86,13.47,35L1064.52,237c-.84,8-1.22,13.87.72,20Zm-13.38-141-5.31,50.53h10.1c9.63,0,16-4.23,17.34-17.39l1.7-16.22c1.23-11.75-2.22-16.92-11.38-16.92Z"/><path class="cls-2" d="M1089.11,92.49H1169l-2.47,23.5h-27L1124.7,257h-25.85l14.82-141h-27Z"/><path class="cls-2" d="M1198.86,161.82h35.49l-2.47,23.5h-35.49l-5.06,48.18H1236L1233.5,257H1163l17.29-164.5h70.5l-2.47,23.5h-44.65Z"/><path class="cls-2" d="M1353,92.49l-35.42,79.9,20,84.6h-27.26L1296,191.9,1267.81,257h-24.21l37.8-84.6-18.63-79.9h26.79l13.13,60.63L1329,92.49Z"/></g></g></svg>