<svg id="Слой_1" data-name="Слой 1" xmlns="http://www.w3.org/2000/svg" viewBox="0 0 1000 1000"><defs><style>.cls-1{fill:none;}.cls-2{fill:#fff;}</style></defs><title>Безымянный-1</title><rect class="cls-1" width="1000" height="1000"/><path class="cls-2" d="M631.22,238.11,563.33,238c-76.26,0-125.55,50.56-125.55,128.83v59.4H369.54a10.67,10.67,0,0,0-10.67,10.68V523a10.67,10.67,0,0,0,10.67,10.67h68.25V750.79a10.67,10.67,0,0,0,10.67,10.67h89a10.67,10.67,0,0,0,10.67-10.67V533.64H628A10.67,10.67,0,0,0,638.66,523l0-86.06A10.68,10.68,0,0,0,628,426.22H548.18V375.87c0-24.2,5.77-36.49,37.29-36.49l45.73,0a10.67,10.67,0,0,0,10.67-10.67V248.78A10.68,10.68,0,0,0,631.22,238.11Z"/></svg>