<svg xmlns="http://www.w3.org/2000/svg" viewBox="0 0 700.43 700.63"><defs><style>.cls-1{fill:#191919;}.cls-2{fill:#212121;}</style></defs><title>Ресурс 2</title><g id="Слой_2" data-name="Слой 2"><g id="Слой_1-2" data-name="Слой 1"><path d="M314.87,690.82,15.77,490.64C-4.6,477-5.35,454.84,14.18,441.11l299.1-210.18c20.38-14.32,53.5-14.32,73.88,0l299.1,210.18c19.53,13.73,18.78,35.9-1.59,49.53L385.56,690.82C366,703.9,334.41,703.9,314.87,690.82Z"/><path class="cls-1" d="M314.87,576.22,15.77,376c-20.37-13.63-21.12-35.81-1.59-49.53l299.1-210.18c20.38-14.32,53.5-14.32,73.88,0l299.1,210.18c19.53,13.73,18.78,35.9-1.59,49.53L385.56,576.22C366,589.3,334.41,589.3,314.87,576.22Z"/><path class="cls-2" d="M314.87,470.63,15.77,270.45c-20.37-13.63-21.12-35.81-1.59-49.53L313.28,10.74c20.38-14.32,53.5-14.32,73.88,0l299.1,210.18c19.53,13.73,18.78,35.9-1.59,49.53L385.56,470.63C366,483.71,334.41,483.71,314.87,470.63Z"/></g></g></svg>