<svg id="Слой_1" data-name="Слой 1" xmlns="http://www.w3.org/2000/svg" viewBox="0 0 720.43 777.63"><defs><style>.cls-1{fill:#fff;stroke:#000;stroke-linecap:round;stroke-linejoin:round;stroke-width:20px;}</style></defs><title>graphic-design</title><path class="cls-1" d="M465,864.16,165.89,664c-20.37-13.63-21.12-35.81-1.59-49.53l299.1-210.18c20.38-14.32,53.5-14.32,73.88,0l299.1,210.18c19.53,13.73,18.78,35.9-1.59,49.53L535.68,864.16C516.13,877.24,484.52,877.24,465,864.16Z" transform="translate(-140.12 -106.34)"/><path class="cls-1" d="M465,725.57,165.89,525.39c-20.37-13.63-21.12-35.81-1.59-49.53l299.1-210.18c20.38-14.32,53.5-14.32,73.88,0l299.1,210.18c19.53,13.73,18.78,35.9-1.59,49.53L535.68,725.57C516.13,738.65,484.52,738.65,465,725.57Z" transform="translate(-140.12 -106.34)"/><path class="cls-1" d="M465,587,165.89,386.8c-20.37-13.63-21.12-35.81-1.59-49.53l299.1-210.18c20.38-14.32,53.5-14.32,73.88,0l299.1,210.18c19.53,13.73,18.78,35.9-1.59,49.53L535.68,587C516.13,600.05,484.52,600.05,465,587Z" transform="translate(-140.12 -106.34)"/></svg>