<svg xmlns="http://www.w3.org/2000/svg" viewBox="0 0 1329.5 561"><defs><style>.cls-1{fill:#fff;}</style></defs><title>Ресурс 1</title><g id="Слой_2" data-name="Слой 2"><g id="Слой_1-2" data-name="Слой 1"><path class="cls-1" d="M68.58,561h0a11.09,11.09,0,0,1-10.83-8.77L.25,283.49a11.09,11.09,0,1,1,21.68-4.64l46.7,218.31L174.07,8.75A11.08,11.08,0,0,1,184.89,0h0a11.08,11.08,0,0,1,10.83,8.73l58.83,270.08a11.08,11.08,0,0,1-21.66,4.72L185,63.39,79.42,552.25A11.09,11.09,0,0,1,68.58,561Z"/></g><g id="Слой_2-2" data-name="Слой 2"><path class="cls-1" d="M351,278.14H334.91l-28.38-85h18.84l17.88,58.21,17.87-58.21h18.36Z"/><path class="cls-1" d="M390,277.66V193.12h54.34v15.7H407.26V227.3h32.61V243H407.26v19h37.56v15.7Z"/><path class="cls-1" d="M502.55,277.66l-15.46-27.78H476v27.78H458.59V193.12h31.52c18.48,0,30.19,9.66,30.19,28,0,12.92-6.52,21-15.7,25.12l17.88,31.4Zm.12-56.16c0-8.82-5.44-12.56-13.65-12.56H476v25.48h13.4c8.22,0,13.29-4.47,13.29-12.44Z"/><path class="cls-1" d="M567.65,209.3v68.36H550.14V209.3H529V193.12h59.66V209.3Z"/><path class="cls-1" d="M600.62,277.66V193.12H655v15.7H617.89V227.3H650.5V243H617.89v19h37.56v15.7Z"/><path class="cls-1" d="M714,277.66l-15.46-28-15.58,28H663.66l24.76-43.12-23.79-41.42h19.93l14.37,26.45,14.61-26.45h19.33L709.2,234.54,734,277.66Z"/><path class="cls-1" d="M775.38,279c-22.34,0-38.16-17.64-38.16-42.76v-1.45c0-25.24,15.94-43,38.28-43s38,17.63,38,42.75V236C813.55,261.23,797.6,279,775.38,279Zm20.17-44.21c0-16.66-8.45-26.93-20.17-26.93s-20,10-20,26.69V236c0,16.67,8.34,26.93,20.17,26.93s20-10,20-26.69Z"/><path class="cls-1" d="M844.83,209.18v19h32.49v15.94H844.83v33.58H827.44V193.12h54.23v16.06Z"/><path class="cls-1" d="M932.15,278.14H916.09l-28.39-85h18.84l17.88,58.21,17.87-58.21h18.36Z"/><path class="cls-1" d="M1002.08,279c-22.35,0-38.17-17.64-38.17-42.76v-1.45c0-25.24,15.94-43,38.29-43s38,17.63,38,42.75V236C1040.24,261.23,1024.3,279,1002.08,279Zm20.17-44.21c0-16.66-8.46-26.93-20.17-26.93S982,217.88,982,234.54V236c0,16.67,8.33,26.93,20.17,26.93s20-10,20-26.69Z"/><path class="cls-1" d="M1098.09,277.66l-15.45-27.78h-11.12v27.78h-17.39V193.12h31.52c18.48,0,30.2,9.66,30.2,28,0,12.92-6.52,21-15.7,25.12l17.87,31.4Zm.12-56.16c0-8.82-5.43-12.56-13.64-12.56h-13v25.48h13.41c8.21,0,13.28-4.47,13.28-12.44Z"/><path class="cls-1" d="M1163.19,209.3v68.36h-17.51V209.3h-21.13V193.12h59.66V209.3Z"/><path class="cls-1" d="M1196.17,277.66V193.12h54.34v15.7h-37.07V227.3h32.61V243h-32.61v19H1251v15.7Z"/><path class="cls-1" d="M1309.57,277.66l-15.46-28-15.58,28h-19.32L1284,234.54l-23.79-41.42h19.92l14.37,26.45,14.62-26.45h19.32l-23.67,41.42,24.76,43.12Z"/><path class="cls-1" d="M312.71,293h22.78c21.17,0,35.5,15,35.5,36.89v1c0,21.92-14.33,37-35.5,37H312.71Zm23.1,63.62c13.26,0,22.35-9.51,22.35-25.66v-1c0-16-9.2-25.77-22.35-25.77H325v52.39Z"/><path class="cls-1" d="M384.57,293h47.05v11.23H396.87v20.31h30.79v11.23H396.87v20.85h35.18v11.23H384.57Z"/><path class="cls-1" d="M441.13,359.44l5.57-9.83c6.41,5.13,12.61,8,20.21,8,6.95,0,11.54-3.32,11.54-9.09,0-5-2.46-7.81-14.22-12.84-13.9-5.88-21.17-10.58-21.17-23,0-12.19,9.73-20.64,23.1-20.64a35.67,35.67,0,0,1,22.35,7.28l-4.92,10.37c-6-4.17-11.44-6.42-17.43-6.42-6.63,0-10.7,3.64-10.7,8.56,0,5.45,2.78,7.91,14.76,12.94,14.22,6.09,20.64,11.55,20.64,22.88,0,13.15-10.05,21.17-23.85,21.17A39.79,39.79,0,0,1,441.13,359.44Z"/><path class="cls-1" d="M504.33,293h12.41v74.85H504.33Z"/><path class="cls-1" d="M531,331v-1c0-21.92,14.32-38.07,34.21-38.07,10.38,0,16.9,2.78,23.1,7.7L582.5,310c-5-4.06-10-6.52-17.54-6.52-12.08,0-21.07,10.9-21.07,26.3v1.07c0,16.9,9,26.74,21.71,26.74a23.52,23.52,0,0,0,13.37-4V337.2H563.14V326.29h27.48v33.58A40.06,40.06,0,0,1,565.17,369C545.07,369,531,354,531,331Z"/><path class="cls-1" d="M605.49,293h11.44l32.83,49.83V293H662v74.85H651.36l-33.79-51.43v51.43H605.49Z"/><path class="cls-1" d="M751.87,369.28l-8.23-9.52c-5.56,5.67-12,9.2-20.32,9.2C710.7,369,701,360.62,701,348.11v-.32c0-9.41,5.35-16.47,14.76-21.5-4.28-6.09-6.31-10.8-6.31-16.25v-.32c0-9.52,7.38-17.86,19.46-17.86,10.8,0,18.08,7.59,18.08,17.22v.32c0,9.41-5.78,15.4-14.87,19.78L743.64,343A102.07,102.07,0,0,0,750,329.29l9.41,4.06a89.63,89.63,0,0,1-8.66,17.86L761,363Zm-29.72-35.07c-6.1,3.42-8.77,8.23-8.77,13v.32c0,6.42,4.7,11,11.23,11,4.7,0,8.76-2.46,12.4-6.31Zm13.9-24.6c0-4.7-3.1-7.91-7.49-7.91-4.7,0-7.91,3.53-7.91,8.23v.43c0,3.64,1.5,6.74,5.35,11.76,6.73-3.2,10-6.95,10-12.08Z"/><path class="cls-1" d="M794.11,293h13.15l14.55,54.32,15.29-54.43h10.69l15.29,54.43L877.62,293h12.84l-21.82,75.28H857.52l-15.29-52.83-15.29,52.83H815.82Z"/><path class="cls-1" d="M901.9,293H949v11.23H914.19v20.31H945v11.23h-30.8v20.85h35.18v11.23H901.9Z"/><path class="cls-1" d="M962.63,293h26.63c14.22,0,24.06,6.95,24.06,19.35,0,9.31-5.24,14.12-11,16.79,8.24,2.89,14.23,7.91,14.23,17.86,0,13.58-10.7,20.85-26.63,20.85H962.63Zm25,31.86c8.13,0,13.37-3.52,13.37-10.58,0-6.63-4.6-10.27-12.62-10.27H974.72V324.9Zm2.68,32c8.55,0,13.9-3.75,13.9-10.7s-5-10.8-14.54-10.8h-15v21.5Z"/></g></g></svg>