<svg id="Слой_1" data-name="Слой 1" xmlns="http://www.w3.org/2000/svg" viewBox="0 0 1000 1000"><defs><style>.cls-1{fill:none;}.cls-2{fill:#fff;}</style></defs><title>Безымянный-1</title><rect class="cls-1" width="1000" height="1000"/><path class="cls-2" d="M771.45,626.3a37.57,37.57,0,0,0-1.86-3.57q-14.27-25.7-54.53-63.1l-.57-.57-.28-.28-.29-.29h-.29q-18.27-17.42-23.12-23.42-8.87-11.42-4-23.13,3.42-8.85,25.7-37.4,11.71-15.13,18.56-24.27,49.4-65.67,42.83-83.94l-1.7-2.85q-1.71-2.57-8.85-4.71t-18.28-.71l-82.22.57a10.67,10.67,0,0,0-5.71.14l-3.71.86-1.43.71-1.14.86a12.69,12.69,0,0,0-3.14,3,19.59,19.59,0,0,0-2.85,5A466.2,466.2,0,0,1,614,433.44q-10.56,17.7-19.42,30.69t-14.84,19.13a103.56,103.56,0,0,1-10.85,9.85q-4.86,3.72-7.42,3.14c-1.71-.38-3.33-.76-4.86-1.14a19,19,0,0,1-6.42-7A31.32,31.32,0,0,1,546.91,477q-.85-6.71-1-11.56t.14-13.71q.3-8.85.29-12,0-10.85.42-23.55t.72-20.12q.29-7.42.28-15.71a66,66,0,0,0-1-13,44.44,44.44,0,0,0-3-9.14,15.39,15.39,0,0,0-5.85-6.85,33,33,0,0,0-9.56-3.86q-15.13-3.42-38.55-3.71-53.1-.57-68.24,6.86a38.46,38.46,0,0,0-10.85,8.56q-5.14,6.28-1.43,6.85,17.13,2.57,24.27,12.27l1.71,3.43q2,3.71,4,13.13a132.5,132.5,0,0,1,2.57,20.84,222.24,222.24,0,0,1,0,35.69q-1.43,14.85-2.71,23.13A46.3,46.3,0,0,1,435.28,488a56.61,56.61,0,0,1-3.43,6.28,4.91,4.91,0,0,1-1.43,1.43,21.39,21.39,0,0,1-7.71,1.43q-4,0-9.71-4a68.49,68.49,0,0,1-11.85-11,146.94,146.94,0,0,1-13.85-19.56q-7.71-12.56-16-29.69l-4.57-8.28q-4.28-8-11.7-23.27t-13.13-29.55a18.82,18.82,0,0,0-6.85-9.13l-1.43-.86a19.54,19.54,0,0,0-4.57-2.43,30.3,30.3,0,0,0-6.57-1.85l-78.23.57q-12,0-16.27,5.43l-1.14,1.71a9.24,9.24,0,0,0-.86,4.57,22.73,22.73,0,0,0,1.71,7.71q17.13,40.26,37.26,77.66t35,60.24q14.85,22.84,30.26,43.11t20.41,26q5,5.72,7.85,8.57l7.14,6.85q6.85,6.85,20.13,16.42a343.34,343.34,0,0,0,29.41,18.85,159.53,159.53,0,0,0,37.55,15.13A129.82,129.82,0,0,0,494.38,655h32.83q10-.86,15.13-6.28l1.14-1.43a18.93,18.93,0,0,0,2.14-5.28,29,29,0,0,0,1-7.85A94.08,94.08,0,0,1,548.47,612q2.13-9.85,4.86-14.85a36.49,36.49,0,0,1,6.14-8.42,24.81,24.81,0,0,1,4.86-4.14,18.63,18.63,0,0,1,2.28-1q6.85-2.28,16.14,4.43a94.77,94.77,0,0,1,17.42,16.56q8.14,9.86,19.55,22.12t20,18.27l5.71,3.43a69.52,69.52,0,0,0,14.85,6.28q9.12,2.85,16,1.43L749.33,655q10.84,0,16.84-3.57t7.14-7.85a22.11,22.11,0,0,0,.15-9.71A35.84,35.84,0,0,0,771.45,626.3Z"/></svg>