<?xml version="1.0" encoding="UTF-8" standalone="no"?><!DOCTYPE svg PUBLIC "-//W3C//DTD SVG 1.1//EN" "http://www.w3.org/Graphics/SVG/1.1/DTD/svg11.dtd"><svg width="100%" height="100%" viewBox="0 0 380 380" version="1.1" xmlns="http://www.w3.org/2000/svg" xmlns:xlink="http://www.w3.org/1999/xlink" xml:space="preserve" xmlns:serif="http://www.serif.com/" style="fill-rule:evenodd;clip-rule:evenodd;stroke-linejoin:round;stroke-miterlimit:1.41421;"><rect id="Монтажная-область1" serif:id="Монтажная область1" x="-1307" y="-20" width="1920" height="1828" style="fill:none;"/><path d="M191.233,42.033l-128.441,74.154l0,148.31l128.441,74.155l128.439,-74.155l0,-148.31l-128.439,-74.154Z" style="fill-opacity:0.5;"/><path d="M191.233,42.033l-128.441,74.154l0,148.31l128.441,74.155l128.439,-74.155l0,-148.31l-128.439,-74.154Zm102.364,79.171l-102.364,59.075l-102.367,-59.075l102.367,-59.102l102.364,59.102Zm-213.424,15.05l102.37,59.077l0,118.234l-102.37,-59.103l0,-118.208Zm119.751,177.311l0,-118.234l102.367,-59.077l0,118.209l-102.367,59.102Z" style="fill-rule:nonzero;"/></svg>