<?xml version="1.0" encoding="utf-8"?>
<!-- Generator: Adobe Illustrator 22.0.0, SVG Export Plug-In . SVG Version: 6.00 Build 0)  -->
<svg version="1.1" id="Слой_1" xmlns:serif="http://www.serif.com/"
	 xmlns="http://www.w3.org/2000/svg" xmlns:xlink="http://www.w3.org/1999/xlink" x="0px" y="0px" viewBox="0 0 1000 1000"
	 style="enable-background:new 0 0 1000 1000;" xml:space="preserve">
<style type="text/css">
	.st0{fill:#FFFFFF;}
</style>
<g>
	<path class="st0" d="M536.2,808.4c2.3-0.6,9.9-4.4,16.9-8.5c68.1-39,100.5-58.2,100.1-59c-0.3-0.6-3.4-2.6-6.7-4.4
		c-3.3-1.7-29.8-17-58.9-33.9c-29-16.8-62.3-36-73.9-42.5c-11.5-6.6-28.6-16.5-37.9-21.9c-54.9-31.9-80.3-46.3-80.9-46.3
		c-0.4,0-0.5,32.6-0.4,72.4l0.4,72.4l61.1,35.3c33.6,19.4,62.7,35.7,64.6,36.3C525.2,809.7,531.3,809.8,536.2,808.4L536.2,808.4z"/>
	<path class="st0" d="M704.3,712.6c31.3-18,35.1-21.3,37.9-31.4c1.9-6.8,0.6-16.3-2.9-22.1c-1.5-2.7-15.4-17.2-30.6-32.3
		c-31.1-30.8-32.7-32-46.1-31.1c-8.5,0.5-3.1-2.3-75.6,39.6c-25.5,14.8-46.2,27-46,27.1c0.2,0.2,22.3,13,49.2,28.6
		c26.9,15.5,54.9,31.7,62.3,36l13.4,7.8l4.7-2.7C673.1,730.7,688.4,721.8,704.3,712.6L704.3,712.6z"/>
	<path class="st0" d="M382.6,579.7V430.1l-3.1,1.7c-1.9,0.9-29.9,18.2-62.6,38.3l-59.3,36.4l-0.3,69.6c-0.2,68-0.2,69.6,2.2,75.1
		c1.3,3,4.3,7.4,6.6,9.7c3.1,3,114.4,68.4,116.2,68.4C382.5,729.3,382.6,662,382.6,579.7z"/>
	<path class="st0" d="M330.2,449.6c157-93.8,186.3-111.7,185.4-112.5c-2.1-1.9-120.9-72.5-121.9-72.5c-2.2,0-123.3,70.5-127.3,74.1
		c-2.1,2-5.1,6.3-6.6,9.4l-2.8,5.8v139.2l2.7-1.4C261,491,292.7,472,330.2,449.6z"/>
	<path class="st0" d="M677,402.2c6.4-2.9,57.8-53.4,62.6-61.6c2.7-4.4,3.1-6.6,3.1-14c0-7.3-0.5-9.5-3-14c-1.7-2.9-4.1-6.2-5.2-7.2
		c-2-1.7-157-91.7-185.4-107.5c-11.8-6.6-17.2-8.1-25.1-7c-3.6,0.6-20.1,9.5-59.5,32.2c-30,17.3-55.7,32.1-57.3,32.9
		c-2.3,1.3,2.8,4.5,64.6,41.3c37,21.9,83,48.9,102.2,59.9c19.2,11.1,43.9,25.3,54.7,31.5c10.9,6.3,21.9,12.3,24.4,13.5
		C659.5,405.3,670.2,405.2,677,402.2L677,402.2z"/>
</g>
</svg>
