<?xml version="1.0" encoding="UTF-8" standalone="no"?><!DOCTYPE svg PUBLIC "-//W3C//DTD SVG 1.1//EN" "http://www.w3.org/Graphics/SVG/1.1/DTD/svg11.dtd"><svg width="100%" height="100%" viewBox="0 0 1000 250" version="1.1" xmlns="http://www.w3.org/2000/svg" xmlns:xlink="http://www.w3.org/1999/xlink" xml:space="preserve" xmlns:serif="http://www.serif.com/" style="fill-rule:evenodd;clip-rule:evenodd;stroke-linejoin:round;stroke-miterlimit:1.41421;"><rect id="Логотип-Форумный-Основной" serif:id="Логотип Форумный Основной" x="0" y="0" width="1000" height="250" style="fill:none;"/><clipPath id="_clip1"><rect x="0" y="0" width="1000" height="250"/></clipPath><g clip-path="url(#_clip1)"><g><path d="M112.737,249.387c0.94,-0.235 3.993,-1.785 6.811,-3.429c27.48,-15.736 40.586,-23.487 40.398,-23.815c-0.141,-0.235 -1.362,-1.034 -2.725,-1.785c-1.315,-0.705 -12.025,-6.859 -23.768,-13.67c-11.697,-6.764 -25.131,-14.515 -29.829,-17.145c-4.65,-2.678 -11.555,-6.671 -15.313,-8.831c-22.172,-12.871 -32.412,-18.696 -32.647,-18.696c-0.141,0 -0.188,13.153 -0.141,29.218l0.141,29.217l24.661,14.234c13.576,7.844 25.319,14.42 26.071,14.655c1.926,0.564 4.368,0.611 6.341,0.047Z" style="fill:#795548;"/><path d="M180.614,210.728c12.636,-7.281 14.186,-8.596 15.314,-12.683c0.751,-2.725 0.235,-6.576 -1.175,-8.925c-0.61,-1.08 -6.2,-6.952 -12.354,-13.059c-12.542,-12.448 -13.199,-12.918 -18.601,-12.542c-3.429,0.188 -1.269,-0.939 -30.533,15.971c-10.288,5.966 -18.649,10.898 -18.555,10.945c0.094,0.094 9.019,5.261 19.87,11.556c10.851,6.247 22.172,12.777 25.131,14.515l5.402,3.147l1.879,-1.08c1.033,-0.564 7.187,-4.134 13.622,-7.845Z" style="fill:#9e9e9e;"/><path d="M50.732,157.084l0,-60.409l-1.269,0.705c-0.751,0.376 -12.072,7.328 -25.271,15.454l-23.957,14.703l-0.141,28.091c-0.094,27.432 -0.094,28.09 0.892,30.298c0.517,1.221 1.738,3.006 2.678,3.899c1.268,1.221 46.175,27.62 46.927,27.62c0.094,0 0.141,-27.151 0.141,-60.361Z" style="fill:#795548;"/><path d="M29.594,104.567c63.367,-37.861 75.205,-45.095 74.829,-45.424c-0.846,-0.751 -48.806,-29.264 -49.229,-29.264c-0.892,0 -49.792,28.466 -51.389,29.922c-0.846,0.799 -2.067,2.537 -2.678,3.805l-1.127,2.349l0,56.18l1.08,-0.563c0.564,-0.329 13.388,-7.986 28.514,-17.005Z" style="fill:#4caf50;"/><path d="M169.575,85.402c2.584,-1.175 23.346,-21.561 25.272,-24.849c1.081,-1.785 1.269,-2.678 1.269,-5.637c0,-2.96 -0.188,-3.852 -1.222,-5.637c-0.704,-1.174 -1.644,-2.49 -2.113,-2.912c-0.799,-0.705 -63.368,-37.016 -74.83,-43.404c-4.744,-2.678 -6.952,-3.288 -10.146,-2.819c-1.456,0.235 -8.127,3.852 -24.004,13.012c-12.119,6.999 -22.5,12.965 -23.111,13.294c-0.939,0.516 1.128,1.832 26.071,16.675c14.937,8.831 33.492,19.729 41.243,24.192c7.75,4.462 17.709,10.193 22.077,12.73c4.416,2.536 8.831,4.979 9.865,5.449c2.583,1.174 6.905,1.127 9.629,-0.094Z" style="fill:#4caf50;"/></g><path d="M279.781,48.502l16.749,0l0,16.749l16.749,0l0,16.749l-16.749,0l0,66.997l-16.749,0l0,-100.495Zm50.248,16.749l16.749,0l0,-16.749l16.749,0l0,100.495l-16.749,0l0,-66.997l-16.749,0l0,-16.749Zm-16.75,16.749l16.75,0l0,16.75l-16.75,0l0,-16.75Z" style="fill:#4caf50;fill-rule:nonzero;"/><rect x="380.276" y="48.502" width="16.749" height="100.496" style="fill:#4caf50;fill-rule:nonzero;"/><path d="M413.775,48.502l16.749,0l0,16.749l16.75,0l0,16.749l-16.75,0l0,66.997l-16.749,0l0,-100.495Zm50.248,50.248l16.749,0l0,-50.248l16.749,0l0,100.495l-16.749,0l0,-33.498l-16.749,0l0,-16.749Zm-16.749,-16.75l16.749,0l0,16.75l-16.749,0l0,-16.75Z" style="fill:#4caf50;fill-rule:nonzero;"/><path d="M514.271,48.502l83.746,0l0,16.749l-66.997,0l0,16.749l50.248,0l0,16.75l-50.248,0l0,33.498l66.997,0l0,16.749l-83.746,0l0,-100.495Z" style="fill:#4caf50;fill-rule:nonzero;"/><path d="M631.516,48.502l50.248,0l0,16.749l-50.248,0l0,-16.749Zm-16.75,16.749l16.75,0l0,66.997l-16.75,0l0,-66.997Zm66.998,0l16.749,0l0,16.749l-16.749,0l0,-16.749Zm0,50.248l16.749,0l0,16.749l-16.749,0l0,-16.749Zm-50.248,16.749l50.248,0l0,16.749l-50.248,0l0,-16.749Z" style="fill:#795548;fill-rule:nonzero;"/><path d="M732.011,48.502l50.248,0l0,16.749l-50.248,0l0,-16.749Zm-16.749,16.749l16.749,0l0,66.997l-16.749,0l0,-66.997Zm66.997,0l16.75,0l0,66.997l-16.75,0l0,-66.997Zm-50.248,66.997l50.248,0l0,16.749l-50.248,0l0,-16.749Z" style="fill:#795548;fill-rule:nonzero;"/><path d="M815.758,48.502l66.997,0l0,16.749l-50.248,0l0,50.248l50.248,0l0,16.749l-50.248,0l0,16.749l-16.749,0l0,-100.495Zm66.997,16.749l16.749,0l0,50.248l-16.749,0l0,-50.248Zm0,66.997l16.749,0l0,16.749l-16.749,0l0,-16.749Z" style="fill:#795548;fill-rule:nonzero;"/><path d="M916.254,48.502l66.997,0l0,16.749l-50.248,0l0,50.248l50.248,0l0,16.749l-50.248,0l0,16.749l-16.749,0l0,-100.495Zm66.997,16.749l16.749,0l0,50.248l-16.749,0l0,-50.248Z" style="fill:#795548;fill-rule:nonzero;"/><path d="M284.418,189.96l0,10.822l-4.637,0l0,-24.197l4.637,0l0,9.847l3.361,0l6.049,-9.847l5.512,0l-7.528,11.594l8.2,12.603l-5.545,0l-6.688,-10.822l-3.361,0Z" style="fill:#795548;fill-rule:nonzero;"/><path d="M312.077,201.286c-1.77,0 -3.44,-0.342 -5.008,-1.025c-1.568,-0.684 -2.868,-1.664 -3.898,-2.941c-0.941,-1.143 -1.647,-2.453 -2.117,-3.932c-0.471,-1.479 -0.706,-3.047 -0.706,-4.705c0,-1.658 0.235,-3.232 0.706,-4.721c0.47,-1.49 1.176,-2.807 2.117,-3.949c1.03,-1.3 2.324,-2.28 3.881,-2.941c1.557,-0.661 3.232,-0.991 5.025,-0.991c1.792,0 3.461,0.336 5.007,1.008c1.546,0.672 2.845,1.647 3.898,2.924c0.964,1.187 1.664,2.498 2.101,3.932c0.437,1.434 0.677,3.013 0.722,4.738c-0.045,1.748 -0.285,3.333 -0.722,4.756c-0.437,1.422 -1.137,2.716 -2.101,3.881c-1.075,1.3 -2.391,2.285 -3.949,2.957c-1.557,0.673 -3.209,1.009 -4.956,1.009Zm-0.135,-4.302c1.12,0 2.151,-0.202 3.092,-0.605c0.941,-0.403 1.714,-1.008 2.319,-1.815c1.075,-1.434 1.613,-3.394 1.613,-5.881c0,-2.509 -0.538,-4.469 -1.613,-5.881c-0.583,-0.784 -1.328,-1.383 -2.235,-1.798c-0.907,-0.414 -1.876,-0.622 -2.907,-0.622c-1.12,0 -2.156,0.202 -3.109,0.605c-0.952,0.404 -1.719,1.009 -2.302,1.815c-1.053,1.344 -1.602,3.305 -1.646,5.881c0.044,2.554 0.593,4.515 1.646,5.881c0.56,0.785 1.3,1.384 2.218,1.798c0.919,0.415 1.894,0.622 2.924,0.622Z" style="fill:#795548;fill-rule:nonzero;"/><path d="M352.774,200.782l-4.638,0l0,-14.451l-7.024,14.451l-1.613,0l-7.023,-14.418l0,14.418l-4.638,0l0,-24.197l4.638,0l7.83,16.064l7.83,-16.064l4.638,0l0,24.197Z" style="fill:#795548;fill-rule:nonzero;"/><path d="M378.987,200.782l-4.571,0l0,-19.627l-11.695,0l0,19.627l-4.57,0l0,-24.197l20.836,0l0,24.197Z" style="fill:#795548;fill-rule:nonzero;"/><path d="M404.192,200.782l-4.571,0l0,-19.895l-8.166,0l-1.613,13.509c-0.515,4.324 -2.521,6.486 -6.016,6.486c-0.493,0 -0.986,-0.033 -1.478,-0.1l0,-4.033c1.053,-0.023 1.848,-0.319 2.386,-0.891c0.537,-0.571 0.862,-1.383 0.974,-2.436l2.05,-16.837l16.434,0l0,24.197Z" style="fill:#795548;fill-rule:nonzero;"/><path d="M414.139,181.155l0,5.243l9.208,0l0,4.57l-9.208,0l0,5.243l11.225,0l0,4.571l-15.795,0l0,-24.197l15.795,0l0,4.57l-11.225,0Z" style="fill:#795548;fill-rule:nonzero;"/><path d="M434.706,189.96l0,10.822l-4.637,0l0,-24.197l4.637,0l0,9.847l3.361,0l6.049,-9.847l5.512,0l-7.528,11.594l8.2,12.603l-5.545,0l-6.688,-10.822l-3.361,0Z" style="fill:#795548;fill-rule:nonzero;"/><path d="M473.287,193.724c-0.471,1.367 -1.132,2.565 -1.983,3.596c-1.076,1.3 -2.392,2.285 -3.949,2.957c-1.557,0.673 -3.209,1.009 -4.957,1.009c-1.792,0 -3.473,-0.348 -5.041,-1.042c-1.568,-0.695 -2.856,-1.669 -3.865,-2.924c-1.904,-2.308 -2.856,-5.186 -2.856,-8.637c0,-3.495 0.952,-6.385 2.856,-8.67c1.031,-1.3 2.325,-2.28 3.882,-2.941c1.557,-0.661 3.232,-0.991 5.024,-0.991c1.792,0 3.462,0.336 5.007,1.008c1.546,0.672 2.846,1.647 3.899,2.924c0.986,1.232 1.725,2.666 2.218,4.301l-4.705,0.807c-0.314,-0.986 -0.695,-1.759 -1.143,-2.319c-0.582,-0.784 -1.344,-1.389 -2.285,-1.815c-0.941,-0.425 -1.938,-0.638 -2.991,-0.638c-1.075,0 -2.078,0.213 -3.008,0.638c-0.929,0.426 -1.686,1.031 -2.268,1.815c-1.053,1.344 -1.602,3.305 -1.647,5.881c0.045,2.554 0.594,4.515 1.647,5.881c0.56,0.785 1.299,1.384 2.218,1.798c0.918,0.415 1.893,0.622 2.924,0.622c1.097,0 2.122,-0.202 3.075,-0.605c0.952,-0.403 1.73,-1.008 2.335,-1.815c0.471,-0.649 0.829,-1.366 1.076,-2.15l4.537,1.31Z" style="fill:#795548;fill-rule:nonzero;"/><path d="M505.582,193.724c-0.47,1.367 -1.131,2.565 -1.982,3.596c-1.076,1.3 -2.392,2.285 -3.949,2.957c-1.557,0.673 -3.21,1.009 -4.957,1.009c-1.792,0 -3.473,-0.348 -5.041,-1.042c-1.568,-0.695 -2.857,-1.669 -3.865,-2.924c-1.904,-2.308 -2.856,-5.186 -2.856,-8.637c0,-3.495 0.952,-6.385 2.856,-8.67c1.031,-1.3 2.325,-2.28 3.882,-2.941c1.557,-0.661 3.232,-0.991 5.024,-0.991c1.792,0 3.461,0.336 5.007,1.008c1.546,0.672 2.846,1.647 3.899,2.924c0.985,1.232 1.725,2.666 2.218,4.301l-4.705,0.807c-0.314,-0.986 -0.695,-1.759 -1.143,-2.319c-0.582,-0.784 -1.344,-1.389 -2.285,-1.815c-0.941,-0.425 -1.938,-0.638 -2.991,-0.638c-1.076,0 -2.078,0.213 -3.008,0.638c-0.93,0.426 -1.686,1.031 -2.268,1.815c-1.053,1.344 -1.602,3.305 -1.647,5.881c0.045,2.554 0.594,4.515 1.647,5.881c0.56,0.785 1.299,1.384 2.218,1.798c0.918,0.415 1.893,0.622 2.923,0.622c1.098,0 2.123,-0.202 3.075,-0.605c0.953,-0.403 1.731,-1.008 2.336,-1.815c0.471,-0.649 0.829,-1.366 1.075,-2.15l4.537,1.31Z" style="fill:#795548;fill-rule:nonzero;"/><path d="M514.421,181.155l0,5.243l9.208,0l0,4.57l-9.208,0l0,5.243l11.224,0l0,4.571l-15.795,0l0,-24.197l15.795,0l0,4.57l-11.224,0Z" style="fill:#795548;fill-rule:nonzero;"/><path d="M549.506,184.718c0,0.806 -0.146,1.607 -0.437,2.403c-0.291,0.795 -0.683,1.529 -1.176,2.201c-0.717,0.986 -1.653,1.77 -2.806,2.352c-1.154,0.583 -2.381,0.874 -3.68,0.874l-6.486,0l0,8.234l-4.571,0l0,-24.197l11.057,0c0.829,0 1.646,0.123 2.453,0.37c0.807,0.246 1.557,0.621 2.252,1.125c0.694,0.505 1.288,1.093 1.781,1.765c0.515,0.694 0.913,1.462 1.193,2.302c0.28,0.84 0.42,1.697 0.42,2.571Zm-5.377,2.083c0.493,-0.672 0.739,-1.366 0.739,-2.083c0,-1.031 -0.291,-1.871 -0.874,-2.521c-0.336,-0.381 -0.744,-0.694 -1.226,-0.941c-0.482,-0.246 -0.947,-0.369 -1.395,-0.369l-6.452,0l0,7.393l6.452,0c0.471,0 0.964,-0.134 1.479,-0.403c0.515,-0.269 0.941,-0.628 1.277,-1.076Z" style="fill:#795548;fill-rule:nonzero;"/><path d="M569.132,188.986c0.963,1.277 1.445,2.744 1.445,4.402c0,1.591 -0.482,3.058 -1.445,4.403c-0.941,1.254 -2.196,2.128 -3.764,2.621c-0.896,0.246 -1.658,0.37 -2.285,0.37l-10.216,0l0,-24.197l9.645,0c0.739,0 1.433,0.112 2.083,0.336c0.717,0.202 1.372,0.515 1.966,0.941c0.594,0.426 1.092,0.93 1.496,1.512c0.941,1.165 1.411,2.577 1.411,4.235c0,0.672 -0.123,1.35 -0.37,2.033c-0.246,0.683 -0.593,1.305 -1.041,1.865l-0.135,0.168c0.426,0.403 0.829,0.84 1.21,1.311Zm-11.628,-8.133l0,5.142l5.243,0c0.246,-0.045 0.515,-0.157 0.806,-0.336c0.292,-0.18 0.527,-0.381 0.706,-0.605c0.381,-0.448 0.571,-0.941 0.571,-1.479c0,-0.762 -0.224,-1.378 -0.672,-1.848c-0.179,-0.224 -0.437,-0.426 -0.773,-0.605c-0.336,-0.179 -0.638,-0.269 -0.907,-0.269l-4.974,0Zm8.469,12.434c0,-0.381 -0.078,-0.761 -0.235,-1.142c-0.157,-0.381 -0.37,-0.717 -0.639,-1.008c-0.313,-0.314 -0.633,-0.533 -0.957,-0.656c-0.325,-0.123 -0.701,-0.185 -1.126,-0.185l-5.512,0l0,6.184l5.512,0c0.694,0 1.344,-0.269 1.949,-0.807c0.672,-0.582 1.008,-1.377 1.008,-2.386Z" style="fill:#795548;fill-rule:nonzero;"/><path d="M579.18,181.155l0,5.243l9.209,0l0,4.57l-9.209,0l0,5.243l11.225,0l0,4.571l-15.795,0l0,-24.197l15.795,0l0,4.57l-11.225,0Z" style="fill:#795548;fill-rule:nonzero;"/><path d="M614.265,184.718c0,0.806 -0.145,1.607 -0.436,2.403c-0.292,0.795 -0.684,1.529 -1.177,2.201c-0.717,0.986 -1.652,1.77 -2.806,2.352c-1.154,0.583 -2.38,0.874 -3.68,0.874l-6.486,0l0,8.234l-4.57,0l0,-24.197l11.056,0c0.829,0 1.647,0.123 2.454,0.37c0.806,0.246 1.557,0.621 2.251,1.125c0.695,0.505 1.288,1.093 1.781,1.765c0.516,0.694 0.913,1.462 1.193,2.302c0.28,0.84 0.42,1.697 0.42,2.571Zm-5.377,2.083c0.493,-0.672 0.74,-1.366 0.74,-2.083c0,-1.031 -0.291,-1.871 -0.874,-2.521c-0.336,-0.381 -0.745,-0.694 -1.227,-0.941c-0.481,-0.246 -0.946,-0.369 -1.394,-0.369l-6.453,0l0,7.393l6.453,0c0.47,0 0.963,-0.134 1.478,-0.403c0.516,-0.269 0.941,-0.628 1.277,-1.076Z" style="fill:#795548;fill-rule:nonzero;"/><path d="M628.011,201.286c-1.77,0 -3.44,-0.342 -5.008,-1.025c-1.568,-0.684 -2.868,-1.664 -3.898,-2.941c-0.941,-1.143 -1.647,-2.453 -2.117,-3.932c-0.471,-1.479 -0.706,-3.047 -0.706,-4.705c0,-1.658 0.235,-3.232 0.706,-4.721c0.47,-1.49 1.176,-2.807 2.117,-3.949c1.03,-1.3 2.324,-2.28 3.881,-2.941c1.557,-0.661 3.232,-0.991 5.025,-0.991c1.792,0 3.461,0.336 5.007,1.008c1.546,0.672 2.845,1.647 3.898,2.924c0.964,1.187 1.664,2.498 2.101,3.932c0.437,1.434 0.677,3.013 0.722,4.738c-0.045,1.748 -0.285,3.333 -0.722,4.756c-0.437,1.422 -1.137,2.716 -2.101,3.881c-1.075,1.3 -2.391,2.285 -3.949,2.957c-1.557,0.673 -3.209,1.009 -4.956,1.009Zm-0.135,-4.302c1.12,0 2.151,-0.202 3.092,-0.605c0.941,-0.403 1.714,-1.008 2.319,-1.815c1.075,-1.434 1.613,-3.394 1.613,-5.881c0,-2.509 -0.538,-4.469 -1.613,-5.881c-0.583,-0.784 -1.328,-1.383 -2.235,-1.798c-0.907,-0.414 -1.876,-0.622 -2.907,-0.622c-1.12,0 -2.156,0.202 -3.109,0.605c-0.952,0.404 -1.719,1.009 -2.302,1.815c-1.053,1.344 -1.602,3.305 -1.646,5.881c0.044,2.554 0.593,4.515 1.646,5.881c0.56,0.785 1.3,1.384 2.218,1.798c0.919,0.415 1.893,0.622 2.924,0.622Z" style="fill:#795548;fill-rule:nonzero;"/><path d="M660.037,188.986c0.964,1.277 1.446,2.744 1.446,4.402c0,1.591 -0.482,3.058 -1.446,4.403c-0.941,1.254 -2.195,2.128 -3.763,2.621c-0.897,0.246 -1.658,0.37 -2.286,0.37l-10.216,0l0,-24.197l9.645,0c0.739,0 1.434,0.112 2.084,0.336c0.717,0.202 1.372,0.515 1.966,0.941c0.593,0.426 1.092,0.93 1.495,1.512c0.941,1.165 1.412,2.577 1.412,4.235c0,0.672 -0.124,1.35 -0.37,2.033c-0.247,0.683 -0.594,1.305 -1.042,1.865l-0.134,0.168c0.425,0.403 0.829,0.84 1.209,1.311Zm-11.627,-8.133l0,5.142l5.242,0c0.247,-0.045 0.516,-0.157 0.807,-0.336c0.291,-0.18 0.526,-0.381 0.706,-0.605c0.38,-0.448 0.571,-0.941 0.571,-1.479c0,-0.762 -0.224,-1.378 -0.672,-1.848c-0.18,-0.224 -0.437,-0.426 -0.773,-0.605c-0.336,-0.179 -0.639,-0.269 -0.908,-0.269l-4.973,0Zm8.468,12.434c0,-0.381 -0.078,-0.761 -0.235,-1.142c-0.157,-0.381 -0.369,-0.717 -0.638,-1.008c-0.314,-0.314 -0.633,-0.533 -0.958,-0.656c-0.325,-0.123 -0.7,-0.185 -1.126,-0.185l-5.511,0l0,6.184l5.511,0c0.695,0 1.344,-0.269 1.949,-0.807c0.672,-0.582 1.008,-1.377 1.008,-2.386Z" style="fill:#795548;fill-rule:nonzero;"/><path d="M697.173,200.782l-4.638,0l0,-14.451l-7.024,14.451l-1.613,0l-7.024,-14.418l0,14.418l-4.637,0l0,-24.197l4.637,0l7.831,16.064l7.83,-16.064l4.638,0l0,24.197Z" style="fill:#795548;fill-rule:nonzero;"/><rect x="702.213" y="176.585" width="4.57" height="24.197" style="fill:#795548;fill-rule:nonzero;"/><path d="M726.981,192.38l0,-15.795l4.638,0l0,24.197l-4.033,0l-11.09,-15.795l0,15.795l-4.671,0l0,-24.197l4.033,0l11.123,15.795Z" style="fill:#795548;fill-rule:nonzero;"/><path d="M741.567,181.155l0,5.243l9.208,0l0,4.57l-9.208,0l0,5.243l11.224,0l0,4.571l-15.795,0l0,-24.197l15.795,0l0,4.57l-11.224,0Z" style="fill:#795548;fill-rule:nonzero;"/><path d="M777.962,193.724c-0.47,1.367 -1.131,2.565 -1.982,3.596c-1.076,1.3 -2.392,2.285 -3.949,2.957c-1.557,0.673 -3.21,1.009 -4.957,1.009c-1.792,0 -3.473,-0.348 -5.041,-1.042c-1.568,-0.695 -2.857,-1.669 -3.865,-2.924c-1.904,-2.308 -2.856,-5.186 -2.856,-8.637c0,-3.495 0.952,-6.385 2.856,-8.67c1.031,-1.3 2.325,-2.28 3.882,-2.941c1.557,-0.661 3.232,-0.991 5.024,-0.991c1.792,0 3.461,0.336 5.007,1.008c1.546,0.672 2.846,1.647 3.899,2.924c0.985,1.232 1.725,2.666 2.218,4.301l-4.705,0.807c-0.314,-0.986 -0.695,-1.759 -1.143,-2.319c-0.582,-0.784 -1.344,-1.389 -2.285,-1.815c-0.941,-0.425 -1.938,-0.638 -2.991,-0.638c-1.076,0 -2.078,0.213 -3.008,0.638c-0.93,0.426 -1.686,1.031 -2.268,1.815c-1.053,1.344 -1.602,3.305 -1.647,5.881c0.045,2.554 0.594,4.515 1.647,5.881c0.56,0.785 1.299,1.384 2.218,1.798c0.918,0.415 1.893,0.622 2.923,0.622c1.098,0 2.123,-0.202 3.075,-0.605c0.953,-0.403 1.731,-1.008 2.336,-1.815c0.471,-0.649 0.829,-1.366 1.076,-2.15l4.536,1.31Z" style="fill:#795548;fill-rule:nonzero;"/><path d="M799.773,189.322c-0.739,1.03 -1.68,1.815 -2.823,2.352l4.436,9.108l-5.175,0l-4,-8.234l-5.41,0l0,8.234l-4.571,0l0,-24.197l11.057,0c0.829,0 1.647,0.123 2.453,0.37c0.807,0.246 1.557,0.621 2.252,1.125c0.694,0.505 1.288,1.093 1.781,1.765c0.515,0.694 0.913,1.462 1.193,2.302c0.28,0.84 0.42,1.697 0.42,2.571c0,0.806 -0.146,1.607 -0.437,2.403c-0.291,0.795 -0.683,1.529 -1.176,2.201Zm-12.972,-1.042l6.452,0c0.471,0 0.964,-0.134 1.479,-0.403c0.515,-0.269 0.941,-0.628 1.277,-1.076c0.493,-0.672 0.739,-1.366 0.739,-2.083c0,-1.031 -0.291,-1.871 -0.873,-2.521c-0.336,-0.381 -0.745,-0.694 -1.227,-0.941c-0.482,-0.246 -0.947,-0.369 -1.395,-0.369l-6.452,0l0,7.393Z" style="fill:#795548;fill-rule:nonzero;"/><path d="M817.685,197.018l-9.88,0l-1.143,3.764l-4.705,0l7.394,-24.197l6.822,0l7.393,24.197l-4.705,0l-1.176,-3.764Zm-1.31,-4.302l-3.664,-11.829l-3.595,11.829l7.259,0Z" style="fill:#795548;fill-rule:nonzero;"/><path d="M830.993,181.155l0,5.243l8.2,0l0,4.57l-8.2,0l0,9.814l-4.57,0l0,-24.197l14.787,0l0,4.57l-10.217,0Z" style="fill:#795548;fill-rule:nonzero;"/><path d="M862.046,181.155l-7.629,0l0,19.627l-4.57,0l0,-19.627l-7.629,0l0,-4.57l19.828,0l0,4.57Z" style="fill:#795548;fill-rule:nonzero;"/><path d="M878.647,176.585l0,24.197l-4.671,0l0,-19.223l-4.537,2.789l0,-5.041l4.537,-2.722l4.671,0Z" style="fill:#795548;fill-rule:nonzero;"/><rect x="885.772" y="196.211" width="4.57" height="4.57" style="fill:#795548;fill-rule:nonzero;"/><path d="M895.753,183.037c0.112,-2.419 1.008,-4.234 2.688,-5.444c1.322,-1.008 3.025,-1.512 5.109,-1.512c2.128,0 3.842,0.504 5.141,1.512c0.852,0.605 1.507,1.389 1.966,2.353c0.46,0.963 0.689,1.994 0.689,3.091c0,1.053 -0.201,2.017 -0.605,2.891c-0.269,0.604 -0.683,1.221 -1.243,1.848c0.851,0.762 1.49,1.647 1.915,2.655c0.359,0.896 0.561,1.927 0.605,3.092c-0.112,2.554 -1.008,4.514 -2.688,5.881c-0.762,0.649 -1.647,1.126 -2.655,1.428c-1.008,0.302 -2.05,0.454 -3.125,0.454c-1.076,0 -2.123,-0.163 -3.143,-0.488c-1.019,-0.325 -1.887,-0.789 -2.604,-1.394c-0.851,-0.695 -1.512,-1.563 -1.983,-2.605c-0.47,-1.042 -0.706,-2.134 -0.706,-3.276c0,-1.076 0.202,-2.106 0.605,-3.092c0.426,-1.008 1.064,-1.893 1.916,-2.655c-0.605,-0.695 -1.031,-1.311 -1.277,-1.848c-0.359,-0.829 -0.56,-1.793 -0.605,-2.891Zm4.839,0c0,0.874 0.269,1.535 0.807,1.983c0.515,0.448 1.232,0.672 2.151,0.672c0.941,0 1.669,-0.224 2.184,-0.672c0.56,-0.47 0.818,-1.131 0.773,-1.983c0.045,-0.851 -0.213,-1.512 -0.773,-1.982c-0.493,-0.426 -1.221,-0.661 -2.184,-0.706c-0.941,0.045 -1.658,0.28 -2.151,0.706c-0.538,0.448 -0.807,1.109 -0.807,1.982Zm5.612,13.04c0.65,-0.628 0.975,-1.479 0.975,-2.554c0,-1.121 -0.325,-1.972 -0.975,-2.555c-0.313,-0.313 -0.705,-0.548 -1.176,-0.705c-0.47,-0.157 -0.963,-0.235 -1.478,-0.235c-1.121,0 -2.006,0.313 -2.655,0.94c-0.628,0.561 -0.941,1.412 -0.941,2.555c0,1.097 0.313,1.949 0.941,2.554c0.672,0.605 1.557,0.907 2.655,0.907c0.515,0 1.008,-0.078 1.478,-0.235c0.471,-0.157 0.863,-0.381 1.176,-0.672Z" style="fill:#795548;fill-rule:nonzero;"/><rect x="922.436" y="189.423" width="10.082" height="3.529" style="fill:#795548;fill-rule:nonzero;"/><path d="M951.808,176.585l0,24.197l-4.671,0l0,-19.223l-4.537,2.789l0,-5.041l4.537,-2.722l4.671,0Z" style="fill:#795548;fill-rule:nonzero;"/><rect x="958.933" y="196.211" width="4.57" height="4.57" style="fill:#795548;fill-rule:nonzero;"/><path d="M977.148,176.585l0,24.197l-4.672,0l0,-19.223l-4.537,2.789l0,-5.041l4.537,-2.722l4.672,0Z" style="fill:#795548;fill-rule:nonzero;"/><path d="M1000,192.75l0,4.268l-2.151,0l0,3.764l-4.637,0l0,-3.764l-10.351,0l0,-4.268l7.628,-16.165l4.739,0l-7.629,16.165l5.613,0l0,-6.05l4.637,0l0,6.05l2.151,0Z" style="fill:#795548;fill-rule:nonzero;"/></g></svg>