<svg xmlns="http://www.w3.org/2000/svg" viewBox="0 0 1000 1000"><defs><style>.cls-1{fill:#fff;}</style></defs><title>1Ресурс 2</title><g id="Слой_2" data-name="Слой 2"><g id="Слой_1-2" data-name="Слой 1"><path class="cls-1" d="M500,0h0C223.86,0,0,223.86,0,500H0c0,276.14,223.86,500,500,500h0c276.14,0,500-223.86,500-500h0C1000,223.86,776.14,0,500,0ZM641.87,328.69a10.67,10.67,0,0,1-10.67,10.67l-45.73,0c-31.53,0-37.29,12.29-37.29,36.49v50.35H628a10.68,10.68,0,0,1,10.68,10.68l0,86.06A10.67,10.67,0,0,1,628,533.64h-79.8V750.79a10.67,10.67,0,0,1-10.67,10.67h-89a10.67,10.67,0,0,1-10.67-10.67V533.64H369.54A10.67,10.67,0,0,1,358.86,523V436.9a10.67,10.67,0,0,1,10.67-10.68h68.25v-59.4c0-78.26,49.28-128.83,125.55-128.83l67.88.11a10.68,10.68,0,0,1,10.66,10.67Z"/></g></g></svg>