<svg xmlns="http://www.w3.org/2000/svg" viewBox="0 0 720.43 720.63"><defs><style>.cls-1{fill:#fff;stroke:#000;stroke-linecap:round;stroke-linejoin:round;stroke-width:20px;}</style></defs><title>Ресурс 1</title><g id="Слой_2" data-name="Слой 2"><g id="Слой_1-2" data-name="Слой 1"><path class="cls-1" d="M324.87,700.82,25.77,500.64C5.4,487,4.65,464.84,24.18,451.11l299.1-210.18c20.38-14.32,53.5-14.32,73.88,0l299.1,210.18c19.53,13.73,18.78,35.9-1.59,49.53L395.56,700.82C376,713.9,344.41,713.9,324.87,700.82Z"/><path class="cls-1" d="M324.87,586.22,25.77,386C5.4,372.42,4.65,350.24,24.18,336.51l299.1-210.18c20.38-14.32,53.5-14.32,73.88,0l299.1,210.18c19.53,13.73,18.78,35.9-1.59,49.53L395.56,586.22C376,599.3,344.41,599.3,324.87,586.22Z"/><path class="cls-1" d="M324.87,480.63,25.77,280.45C5.4,266.82,4.65,244.64,24.18,230.92L323.28,20.74c20.38-14.32,53.5-14.32,73.88,0l299.1,210.18c19.53,13.73,18.78,35.9-1.59,49.53L395.56,480.63C376,493.71,344.41,493.71,324.87,480.63Z"/></g></g></svg>