<svg xmlns="http://www.w3.org/2000/svg" viewBox="0 0 1331 240.82"><defs><style>.cls-1{fill:#fff;}</style></defs><title>Ресурс 3</title><g id="Слой_2" data-name="Слой 2"><g id="Слой_1-2" data-name="Слой 1"><path class="cls-1" d="M103,79.87v76.25L56,202.45,12.79,159.26V79.87L0,67.08,28.47,38.61,56.71,67.08,44.4,79.87v61l27,27V79.87L58.88,67.08,87.11,38.61l28.23,28.47Z"/><path class="cls-1" d="M148.4,142.13v9.17l8.2,8,25.58-25.58,22.93,22.44-46.82,46.33-41-41.26V82l43.44-43.43,45.36,45.85Zm0-17.62,25.34-25.09L148.4,73.36Z"/><path class="cls-1" d="M276.05,93.63,256,73.11v88.08L268.32,174l-28.47,28.47L211.62,174l12.79-12.79V85.66l47-47,29.68,29.92Z"/><path class="cls-1" d="M310.31,31.61,341.92.24V57.91H379.8L349.16,88.32h-7.24v72.87L354.23,174l-28.48,28.47L297.52,174l12.79-12.79Z"/><path class="cls-1" d="M402.24,142.13v9.17l8.21,8L436,133.68,459,156.12l-46.81,46.33-41-41.26V82l43.43-43.43,45.36,45.85Zm0-17.62,25.34-25.09L402.24,73.36Z"/><path class="cls-1" d="M535,120.41,574.05,174l-28.47,28.47-28-28.47,12.55-12.79L516.62,140l-13.51,21.24L515.41,174l-28.47,28.47L458.71,174,499,120.41,459.91,67.08l28.48-28.47,28,28.47L503.83,79.87l13.27,21.24,14-21.24L518.55,67.08,547,38.61l28,28.47Z"/><path class="cls-1" d="M624.48,202.45l-41-41.26V82.28l43.43-43.67,44.4,44.64v72.87ZM639.92,98.93,614.58,73.36v78.18l8,8,17.37-17.37Z"/><path class="cls-1" d="M726.55,88.32H712.31V209.45l-31.13,31.37V43.43L724.62,0l27,27.75-23.4,23.17L712.31,34.75V57.91h44.16Z"/><path class="cls-1" d="M857.57,79.87v76.25l-47.05,46.33-43.19-43.19V79.87L754.54,67.08,783,38.61l28.23,28.47-12.3,12.79v61l27,27V79.87L813.42,67.08l28.23-28.47,28.23,28.47Z"/><path class="cls-1" d="M912.83,202.45l-41-41.26V82.28l43.44-43.67,44.4,44.64v72.87ZM928.28,98.93,902.94,73.36v78.18l8,8,17.38-17.37Z"/><path class="cls-1" d="M1032,93.63l-20-20.52v88.08l12.3,12.79-28.47,28.47L967.61,174l12.78-12.79V85.66l47.06-47,29.68,29.92Z"/><path class="cls-1" d="M1066.3,31.61,1097.91.24V57.91h37.88l-30.65,30.41h-7.23v72.87l12.3,12.79-28.47,28.47L1053.51,174l12.79-12.79Z"/><path class="cls-1" d="M1158.23,142.13v9.17l8.2,8L1192,133.68l22.93,22.44-46.81,46.33-41-41.26V82l43.44-43.43,45.36,45.85Zm0-17.62,25.34-25.09-25.34-26.06Z"/><path class="cls-1" d="M1290.94,120.41,1330,174l-28.48,28.47-28-28.47,12.55-12.79L1272.61,140l-13.52,21.24L1271.4,174l-28.48,28.47L1214.69,174l40.3-53.57L1215.9,67.08l28.47-28.47,28,28.47-12.54,12.79,13.27,21.24,14-21.24-12.54-12.79L1303,38.61l28,28.47Z"/><rect class="cls-1" x="12.76" y="220.24" width="90.52" height="2.26"/><path class="cls-1" d="M120.33,214.12h9.52V216h-7.43v12.19h-2.09Z"/><path class="cls-1" d="M133.17,214.12h2.09V217a6.3,6.3,0,0,1,5.38-3.12c3.36,0,6.7,2.66,6.7,7.33s-3.31,7.3-6.7,7.3a6.35,6.35,0,0,1-5.38-3v7h-2.09Zm12,7c0-3.31-2.28-5.43-4.93-5.43a5.45,5.45,0,0,0,0,10.88C143,226.58,145.19,224.57,145.19,221.13Z"/><path class="cls-1" d="M150.41,224c0-3,2.45-4.58,6-4.58a14.85,14.85,0,0,1,4.29.59v-.43c0-2.5-1.52-3.8-4.15-3.8a9.69,9.69,0,0,0-4.26,1l-.63-1.71a11.6,11.6,0,0,1,5.11-1.19,6.23,6.23,0,0,1,4.53,1.54,5.55,5.55,0,0,1,1.46,4.13v8.58H160.7v-2.09a6.14,6.14,0,0,1-5,2.39C153,228.46,150.41,227,150.41,224Zm10.32-1v-1.3a14.37,14.37,0,0,0-4.1-.6c-2.61,0-4.1,1.14-4.1,2.88s1.63,2.79,3.53,2.79C158.64,226.77,160.73,225.23,160.73,223Z"/><path class="cls-1" d="M175.91,227a5.14,5.14,0,0,1-3.5,1.44c-3.37,0-5.7-2.75-5.7-7.36s2.33-7.27,5.7-7.27a4.88,4.88,0,0,1,3.5,1.52v-6.19H178v6.19a4.87,4.87,0,0,1,3.5-1.52c3.36,0,5.72,2.71,5.72,7.33s-2.36,7.3-5.72,7.3A4.86,4.86,0,0,1,178,227v5.48h-2.12Zm0-1.79v-8.15a4,4,0,0,0-3.07-1.38c-2.66,0-4,2.14-4,5.51s1.22,5.4,4,5.4A4,4,0,0,0,175.91,225.23Zm9.17-4.07c0-3.32-1.3-5.46-4-5.46a4.11,4.11,0,0,0-3.09,1.38v8.15a4.11,4.11,0,0,0,3.09,1.38C183.86,226.61,185.08,224.57,185.08,221.16Z"/><path class="cls-1" d="M191.45,214.12h2.09v11.11l8.33-11.11h2v14h-2.09v-11.1l-8.36,11.1h-2Z"/><path class="cls-1" d="M217.76,222.38a11.05,11.05,0,0,1-4.7,1.27c-2.77,0-4.64-1.44-4.64-4.2v-5.33h2.09v5a2.53,2.53,0,0,0,2.82,2.69,8.45,8.45,0,0,0,4.43-1.33v-6.38h2.09v14h-2.09Z"/><path class="cls-1" d="M223.93,221.16c0-4.08,2.85-7.33,6.73-7.33,4.15,0,6.54,3.31,6.54,7.43a7.37,7.37,0,0,1,0,.74H226a4.9,4.9,0,0,0,4.94,4.66,5.79,5.79,0,0,0,4.43-2l1.3,1.17a7.25,7.25,0,0,1-5.78,2.63A7,7,0,0,1,223.93,221.16Zm11.15-.85c-.24-2.55-1.71-4.72-4.48-4.72-2.41,0-4.26,2-4.56,4.72Z"/><path class="cls-1" d="M240.28,221.16a7.31,7.31,0,0,1,12.8-4.84l-1.33,1.41a5.74,5.74,0,0,0-4.31-2.06,5.48,5.48,0,0,0,.14,10.94,5.68,5.68,0,0,0,4.23-2.12l1.39,1.28a7.26,7.26,0,0,1-12.92-4.61Z"/><path class="cls-1" d="M256.92,214.12H259v8.09l7.68-8.09h2.58l-5.86,6.09,6,7.95H267l-5-6.43-3,3v3.4h-2.09Z"/><path class="cls-1" d="M272.59,214.12h2.09v11.11L283,214.12h2v14H283v-11.1l-8.36,11.1h-2Z"/><path class="cls-1" d="M290,214.12h2.09v11.11l8.33-11.11h2v14h-2.09v-11.1L292,228.16h-2Zm2.33-5.31,1.44-.3a2.45,2.45,0,0,0,4.78,0l1.44.3a3.87,3.87,0,0,1-7.66,0Z"/><path class="cls-1" d="M313.76,226.31h1.52c1.14-2.09,1.87-5,1.87-9.74v-2.45h10v12.19h2.12l-.33,5.35h-1.74v-3.5H315.85l-.38,3.5h-1.71Zm11.29,0V216h-5.89v1.95a19.1,19.1,0,0,1-1.65,8.39Z"/><path class="cls-1" d="M332.41,214.12h2.1v11.11l8.33-11.11h2v14h-2.09v-11.1l-8.36,11.1h-2Z"/><path class="cls-1" d="M348.47,226.39l1-1.54a7.22,7.22,0,0,0,4.7,1.81c1.82,0,3.47-.86,3.47-2.49,0-1.41-1.24-2.31-3.52-2.31h-1.88v-1.71h1.9c1.85,0,3.12-1,3.12-2.42,0-1.3-1.3-2.09-3-2.09a7,7,0,0,0-4.27,1.42l-1-1.47a8.81,8.81,0,0,1,5.43-1.76c3.15,0,5.08,1.57,5.08,3.74a3.36,3.36,0,0,1-2.26,3.23,3.47,3.47,0,0,1,2.61,3.45c0,2.25-2.09,4.23-5.56,4.23A8.84,8.84,0,0,1,348.47,226.39Z"/><path class="cls-1" d="M362.94,224c0-3,2.44-4.58,6-4.58a14.85,14.85,0,0,1,4.29.59v-.43c0-2.5-1.52-3.8-4.16-3.8a9.72,9.72,0,0,0-4.26,1l-.62-1.71a11.55,11.55,0,0,1,5.1-1.19,6.23,6.23,0,0,1,4.53,1.54,5.56,5.56,0,0,1,1.47,4.13v8.58h-2.06v-2.09a6.16,6.16,0,0,1-5.05,2.39C365.54,228.46,362.94,227,362.94,224Zm10.31-1v-1.3a14.37,14.37,0,0,0-4.1-.6c-2.6,0-4.09,1.14-4.09,2.88s1.63,2.79,3.52,2.79C371.16,226.77,373.25,225.23,373.25,223Z"/><path class="cls-1" d="M380,214.12h2.09v11.11l8.33-11.11h2v14h-2.09v-11.1L382,228.16h-2Zm2.34-5.31,1.44-.3a2.45,2.45,0,0,0,4.77,0l1.44.3a3.87,3.87,0,0,1-7.65,0Z"/><path class="cls-1" d="M397.4,214.12h2.09v6.06h8.09v-6.06h2.09v14h-2.09V222h-8.09v6.14H397.4Z"/><path class="cls-1" d="M423,214.12h2.09v11.11l8.33-11.11h2v14H433.4v-11.1L425,228.16h-2Z"/><path class="cls-1" d="M448.86,214.12h6.79c2.79,0,4.58,1.39,4.58,3.51a3.35,3.35,0,0,1-2.33,3.23c1.68.46,3.09,1.49,3.09,3.47,0,2.36-2,3.83-5.1,3.83h-7Zm6.41,6c1.68,0,2.84-.79,2.84-2.25,0-1.17-1-2-2.79-2H451v4.23Zm.35,6.22c2,0,3.23-.9,3.23-2.37s-1.22-2.17-3.5-2.17H451v4.54Z"/><path class="cls-1" d="M464.18,221.16c0-4.08,2.85-7.33,6.73-7.33,4.15,0,6.54,3.31,6.54,7.43a7.37,7.37,0,0,1,0,.74H466.29a4.9,4.9,0,0,0,4.94,4.66,5.79,5.79,0,0,0,4.43-2l1.3,1.17a7.25,7.25,0,0,1-5.78,2.63A7,7,0,0,1,464.18,221.16Zm11.15-.85c-.24-2.55-1.71-4.72-4.48-4.72-2.41,0-4.26,2-4.56,4.72Z"/><path class="cls-1" d="M480.88,220.59c0-4.54.35-8.88,5.24-10.05l7.81-1.84.41,1.76-7.6,1.87c-2.9.74-3.88,2.31-4.1,5a6.36,6.36,0,0,1,5.81-3,6.88,6.88,0,0,1,6.73,7,7.14,7.14,0,0,1-7.19,7.22C483.73,228.48,480.88,225.47,480.88,220.59Zm12.13.73a5.13,5.13,0,0,0-5-5.3,5,5,0,0,0-5,5.3,5.12,5.12,0,0,0,5,5.29A5,5,0,0,0,493,221.32Z"/><path class="cls-1" d="M498.67,218.9h7.54v2.2h-7.54Z"/><path class="cls-1" d="M510.59,214.12h2.09V217a6.28,6.28,0,0,1,5.37-3.12c3.37,0,6.71,2.66,6.71,7.33s-3.32,7.3-6.71,7.3a6.34,6.34,0,0,1-5.37-3v7h-2.09Zm12,7c0-3.31-2.28-5.43-4.94-5.43a5.45,5.45,0,0,0,0,10.88C520.38,226.58,522.61,224.57,522.61,221.13Z"/><path class="cls-1" d="M527.83,224c0-3,2.45-4.58,6-4.58a14.85,14.85,0,0,1,4.29.59v-.43c0-2.5-1.52-3.8-4.15-3.8a9.69,9.69,0,0,0-4.26,1l-.63-1.71a11.59,11.59,0,0,1,5.1-1.19,6.27,6.27,0,0,1,4.54,1.54,5.59,5.59,0,0,1,1.46,4.13v8.58h-2.06v-2.09a6.16,6.16,0,0,1-5,2.39C530.44,228.46,527.83,227,527.83,224Zm10.32-1v-1.3a14.42,14.42,0,0,0-4.1-.6c-2.61,0-4.1,1.14-4.1,2.88s1.63,2.79,3.53,2.79C536.06,226.77,538.15,225.23,538.15,223Z"/><path class="cls-1" d="M543.53,226.39l1.06-1.54a7.2,7.2,0,0,0,4.69,1.81c1.82,0,3.48-.86,3.48-2.49,0-1.41-1.25-2.31-3.53-2.31h-1.88v-1.71h1.91c1.84,0,3.12-1,3.12-2.42,0-1.3-1.31-2.09-3-2.09a7.06,7.06,0,0,0-4.27,1.42l-1-1.47a8.81,8.81,0,0,1,5.43-1.76c3.15,0,5.08,1.57,5.08,3.74a3.36,3.36,0,0,1-2.25,3.23,3.47,3.47,0,0,1,2.6,3.45c0,2.25-2.09,4.23-5.56,4.23A8.84,8.84,0,0,1,543.53,226.39Z"/><path class="cls-1" d="M559.06,214.12h2.09V217a6.3,6.3,0,0,1,5.37-3.12c3.37,0,6.71,2.66,6.71,7.33s-3.31,7.3-6.71,7.3a6.35,6.35,0,0,1-5.37-3v7h-2.09Zm12,7c0-3.31-2.29-5.43-5-5.43a5.45,5.45,0,0,0,0,10.88C568.86,226.58,571.09,224.57,571.09,221.13Z"/><path class="cls-1" d="M576.31,224c0-3,2.44-4.58,6-4.58a14.85,14.85,0,0,1,4.29.59v-.43c0-2.5-1.52-3.8-4.15-3.8a9.69,9.69,0,0,0-4.26,1l-.63-1.71a11.6,11.6,0,0,1,5.11-1.19,6.25,6.25,0,0,1,4.53,1.54,5.6,5.6,0,0,1,1.47,4.13v8.58h-2.07v-2.09a6.16,6.16,0,0,1-5.05,2.39C578.91,228.46,576.31,227,576.31,224Zm10.31-1v-1.3a14.37,14.37,0,0,0-4.1-.6c-2.61,0-4.1,1.14-4.1,2.88s1.63,2.79,3.53,2.79C584.53,226.77,586.62,225.23,586.62,223Z"/><path class="cls-1" d="M592.84,220.59c0-4.54.35-8.88,5.24-10.05l7.82-1.84.4,1.76-7.59,1.87c-2.91.74-3.88,2.31-4.1,5a6.34,6.34,0,0,1,5.81-3,6.89,6.89,0,0,1,6.73,7,7.14,7.14,0,0,1-7.2,7.22C595.69,228.48,592.84,225.47,592.84,220.59Zm12.13.73a5.13,5.13,0,0,0-5-5.3,5,5,0,0,0-5,5.3,5.12,5.12,0,0,0,5,5.29A5,5,0,0,0,605,221.32Z"/><path class="cls-1" d="M610.33,221.16a7.32,7.32,0,1,1,7.28,7.32A7.26,7.26,0,0,1,610.33,221.16Zm12.49,0a5.32,5.32,0,0,0-5.21-5.49,5.2,5.2,0,0,0-5.14,5.49,5.27,5.27,0,0,0,5.19,5.45A5.19,5.19,0,0,0,622.82,221.16Z"/><path class="cls-1" d="M631.86,216h-5v-1.85H639V216h-5v12.19h-2.12Z"/><path class="cls-1" d="M642.32,214.12h2.09v8.09l7.68-8.09h2.58l-5.86,6.09,6,7.95h-2.48l-5-6.43-3,3v3.4h-2.09Z"/><path class="cls-1" d="M656.39,224c0-3,2.44-4.58,6-4.58a14.85,14.85,0,0,1,4.29.59v-.43c0-2.5-1.52-3.8-4.16-3.8a9.76,9.76,0,0,0-4.26,1l-.62-1.71a11.55,11.55,0,0,1,5.1-1.19,6.23,6.23,0,0,1,4.53,1.54,5.56,5.56,0,0,1,1.47,4.13v8.58h-2.06v-2.09a6.16,6.16,0,0,1-5,2.39C659,228.46,656.39,227,656.39,224Zm10.31-1v-1.3a14.37,14.37,0,0,0-4.1-.6c-2.6,0-4.1,1.14-4.1,2.88s1.64,2.79,3.53,2.79C664.61,226.77,666.7,225.23,666.7,223Z"/></g></g></svg>