<svg xmlns="http://www.w3.org/2000/svg" viewBox="0 0 1000 1000"><defs><style>.cls-1{fill:#fff;}</style></defs><title>1Ресурс 1</title><g id="Слой_2" data-name="Слой 2"><g id="Слой_1-2" data-name="Слой 1"><path class="cls-1" d="M500,0C223.86,0,0,223.86,0,500s223.86,500,500,500,500-223.86,500-500S776.14,0,500,0ZM690,535.57q4.84,6,23.12,23.42h.29l.29.29.28.28.57.57q40.26,37.4,54.53,63.1A37.57,37.57,0,0,1,771,626.8a35.84,35.84,0,0,1,2,7.56,22.11,22.11,0,0,1-.15,9.71q-1.15,4.28-7.14,7.85t-16.84,3.57l-73.09,1.14q-6.86,1.43-16-1.43a69.52,69.52,0,0,1-14.85-6.28l-5.71-3.43q-8.56-6-20-18.27T599.66,605.1a94.77,94.77,0,0,0-17.42-16.56q-9.29-6.72-16.14-4.43a18.63,18.63,0,0,0-2.28,1,24.81,24.81,0,0,0-4.86,4.14,36.49,36.49,0,0,0-6.14,8.42q-2.72,5-4.86,14.85a94.07,94.07,0,0,0-1.85,22.12,29,29,0,0,1-1,7.85,18.93,18.93,0,0,1-2.14,5.28l-1.14,1.43q-5.14,5.42-15.13,6.28H493.88a129.82,129.82,0,0,1-41.68-4.72,159.53,159.53,0,0,1-37.55-15.13,343.35,343.35,0,0,1-29.41-18.85q-13.28-9.56-20.13-16.42L358,593.52q-2.85-2.85-7.85-8.57t-20.41-26q-15.42-20.27-30.26-43.11t-35-60.24q-20.13-37.4-37.26-77.66a22.73,22.73,0,0,1-1.71-7.71,9.24,9.24,0,0,1,.86-4.57L227.5,364q4.28-5.43,16.27-5.43L322,358a30.3,30.3,0,0,1,6.57,1.85,19.54,19.54,0,0,1,4.57,2.43l1.43.86a18.82,18.82,0,0,1,6.85,9.13q5.71,14.28,13.13,29.55t11.7,23.27l4.57,8.28q8.28,17.13,16,29.69a146.94,146.94,0,0,0,13.85,19.56,68.49,68.49,0,0,0,11.85,11q5.71,4,9.71,4a21.39,21.39,0,0,0,7.71-1.43,4.91,4.91,0,0,0,1.42-1.43,56.61,56.61,0,0,0,3.43-6.28A46.3,46.3,0,0,0,438.63,475q1.29-8.28,2.71-23.13a222.24,222.24,0,0,0,0-35.69,132.51,132.51,0,0,0-2.57-20.84q-2-9.42-4-13.13l-1.72-3.43q-7.14-9.71-24.27-12.27-3.71-.56,1.43-6.85a38.46,38.46,0,0,1,10.85-8.56q15.13-7.42,68.24-6.85,23.42.29,38.55,3.71a33,33,0,0,1,9.56,3.86,15.38,15.38,0,0,1,5.85,6.85,44.44,44.44,0,0,1,3,9.14,66,66,0,0,1,1,13q0,8.28-.28,15.71t-.72,20.13q-.42,12.7-.42,23.55,0,3.14-.29,12t-.14,13.71q.14,4.86,1,11.56a31.32,31.32,0,0,0,3.28,11.14,19,19,0,0,0,6.42,7c1.53.38,3.14.76,4.86,1.14s4.18-.66,7.42-3.14a103.56,103.56,0,0,0,10.85-9.85q6-6.13,14.84-19.13t19.42-30.69a466.2,466.2,0,0,0,30.55-64.24,19.59,19.59,0,0,1,2.85-5,12.69,12.69,0,0,1,3.14-3l1.14-.86,1.43-.71,3.71-.86a10.67,10.67,0,0,1,5.71-.14l82.22-.57q11.14-1.43,18.28.71t8.85,4.71l1.7,2.85q6.57,18.27-42.83,83.94-6.85,9.14-18.56,24.27-22.26,28.56-25.7,37.4Q681.16,524.16,690,535.57Z"/></g></g></svg>