<svg xmlns="http://www.w3.org/2000/svg" viewBox="0 0 430.62 168"><title>vvxlogo5</title><g id="Слой_2" data-name="Слой 2"><g id="Слой_1-2" data-name="Слой 1"><path d="M.4,7l66.77,157.9A5.05,5.05,0,0,0,71.82,168H310.41a5.06,5.06,0,0,0,4.28-2.36l26.83-42.52,27.55,42.57a5,5,0,0,0,4.24,2.31h52.25a5.05,5.05,0,0,0,4.11-8l-54.13-76a5,5,0,0,1,0-5.88L426,8a5.05,5.05,0,0,0-4.1-8H373.52a5.05,5.05,0,0,0-4.22,2.27L343,42.24l-27.06-40A5.05,5.05,0,0,0,311.72,0H258.51a5,5,0,0,0-4.44,2.64L228.36,50a5.06,5.06,0,0,0,4.44,7.47h12.88a5,5,0,0,1,3.73,8.45L156.29,168l35-79.37a5,5,0,0,0-4.62-7.09H172.34a5.05,5.05,0,0,1-4.65-7L196.23,7a5.05,5.05,0,0,0-4.65-7h-48.7a5,5,0,0,0-4.66,3.1L98.48,98.16l-38.8-95A5.06,5.06,0,0,0,55,0H5.06A5.06,5.06,0,0,0,.4,7Z"/></g></g></svg>