<svg xmlns="http://www.w3.org/2000/svg" viewBox="0 0 1828.5 1828.5"><defs><style>.cls-1{fill:none;stroke:#000;stroke-miterlimit:10;stroke-width:20px;}</style></defs><title>Ресурс 1</title><g id="Слой_2" data-name="Слой 2"><g id="Слой_1-2" data-name="Слой 1"><rect class="cls-1" x="10" y="10" width="1808.5" height="1808.5"/><path d="M374.58,1020.1v86.5H179v-86.5h49V806.89H182.86V720.95H370.73v85.95H325.55V1020.1Zm-158.67,40.77v5.51H337.12v-5.51h-57.3V767.22h52.89v-5.51H220.87v5.51h53.44v293.65Z"/><path d="M613.68,716.54c79.89,0,166.38,43.52,181.26,146.55H698c-13.77-39.11-43-56.75-84.29-56.75-57.85,0-95.86,43.52-95.86,107.43,0,56.75,37.46,106.33,95.86,106.88,41.87,0,75.48-20.93,85.95-62.26h97c-14.32,109.09-100.82,152.06-182.91,152.06-98.07.55-197.23-65.56-197.78-196.68C416.45,782.65,515.62,716.54,613.68,716.54Zm117.9,276.57c-24.24,46.83-66.66,69.42-117.9,69.42-71.07,0-143.79-52.89-143.79-148.75,0-96.41,72.72-149.85,143.79-149.85,49.58,0,91.45,20.94,115.7,63.91H736C710.65,782.1,665.47,759,613.68,759c-74.38,0-149.3,54.54-149.3,154.81,0,99.72,74.93,154.81,149.3,154.26,52.89,0,101.37-26.45,124.51-74.93Z"/><path d="M848.39,914.32c0-266.65,395.57-266.65,395.57,0C1244,1181.53,848.39,1181.53,848.39,914.32Zm347.64,0c0-207.15-299.16-206.6-299.16,0C896.87,1121.47,1196,1121.47,1196,914.32Zm-293.65,0c0,201.64,288.14,197.78,288.14,0C1190.52,717.09,902.38,713.23,902.38,914.32Zm240.76,0c0,139.94-193.38,139.94-193.38,0C949.76,775.49,1143.13,775.49,1143.13,914.32Z"/><path d="M1420.26,917.08V1106.6H1318.34V719.29h35.81l195,190.62v-189H1650v386.2h-35.26Zm-55.09,151.51h6.61V808c38.57,36.91,77.13,74.93,114.59,111.84,36.91,36.36,73.83,72.17,111.84,109.09h4.41V758.41h-6.06v261.14c-38.57-38-76.58-76-115.7-112.39-35.81-36.36-72.72-72.72-109.64-108.53h-6.06Z"/></g></g></svg>