<svg xmlns="http://www.w3.org/2000/svg" viewBox="0 0 725 397"><defs><style>.cls-1{fill:#ce3333;}.cls-2{fill:#fff;}</style></defs><title>Ресурс 1</title><g id="Слой_2" data-name="Слой 2"><g id="Слой_3" data-name="Слой 3"><rect class="cls-1" x="555" y="35" width="135" height="35"/><rect class="cls-1" x="450" y="327" width="105" height="35"/><rect class="cls-1" x="380" y="327" width="35" height="70"/><rect class="cls-1" x="310" y="327" width="35" height="70"/><rect class="cls-1" x="240" y="327" width="35" height="70"/><rect class="cls-1" x="170" y="327" width="35" height="35"/><rect class="cls-1" x="35" y="327" width="100" height="35" transform="translate(170 689) rotate(-180)"/><rect class="cls-1" y="251" width="35" height="76" transform="translate(35 578) rotate(-180)"/><rect class="cls-1" x="35" y="35" width="135" height="35" transform="translate(205 105) rotate(-180)"/><rect class="cls-1" x="485" y="34" width="35" height="35"/><rect class="cls-1" x="415" width="35" height="70"/><rect class="cls-1" x="345" width="35" height="70"/><rect class="cls-1" x="275" width="35" height="70"/><rect class="cls-1" x="205" y="35" width="35" height="35"/><rect class="cls-1" x="690" y="216" width="35" height="35" transform="translate(941 -474) rotate(90)"/><rect class="cls-1" x="690" y="70" width="35" height="111" transform="translate(1415 251) rotate(-180)"/><rect class="cls-1" y="181" width="35" height="35" transform="translate(216 181) rotate(90)"/><rect class="cls-1" x="-21" y="90" width="77" height="35" transform="translate(-90 125) rotate(-90)"/><path class="cls-2" d="M189,212.7V130h28v96.8L175.73,268H134.27L93,226.8V130h27v82.7L147.48,240h13.84Z"/><path class="cls-2" d="M331,268V254.46l-13.84-13.92L303.32,227H262v41H234V130H344.38L358,144v69l-13.62,13.8L358,240.4V268Zm0-69V157H262v42Z"/><path class="cls-2" d="M420,267V157.8H372V130H496v27.8H448V267Z"/><path class="cls-2" d="M508,268V226.1l28-27.4-28-27.4V130h28v27.6L563.8,185h13L604,157.6V130h27v41.6l-27,27.6,27,27.6V268H604V240.4L576.81,213h-13L536,240.4V268Z"/><polygon class="cls-1" points="590 327 590 362 725 362 725 286 690 286 690 327 590 327"/></g></g></svg>