<svg xmlns="http://www.w3.org/2000/svg" viewBox="0 0 1000.5 1000"><defs><style>.cls-1{fill:#fff;}</style></defs><title>dfsdfsdfd123412342134sfРесурс 1</title><g id="Слой_2" data-name="Слой 2"><g id="Слой_1-2" data-name="Слой 1"><ellipse class="cls-1" cx="500.25" cy="500" rx="500.25" ry="500"/><path d="M596.33,284.5H403.68A118.68,118.68,0,0,0,285,403.18V595.82A118.68,118.68,0,0,0,403.68,714.5H596.32A118.68,118.68,0,0,0,715,595.82V403.16A118.8,118.8,0,0,0,596.33,284.5ZM677,595.5a81.09,81.09,0,0,1-81,81H403.58A80.67,80.67,0,0,1,323,595.92V403a80.52,80.52,0,0,1,80.52-80.52H596.47A80.53,80.53,0,0,1,677,403V595.5Z"/><path d="M500,388.72A110.81,110.81,0,1,0,610.85,499.54,110.94,110.94,0,0,0,500,388.72Zm0,183.47a72.66,72.66,0,1,1,72.66-72.65A72.74,72.74,0,0,1,500,572.19Z"/><path d="M615.49,356.37a28,28,0,1,0,19.79,8.19A28.09,28.09,0,0,0,615.49,356.37Z"/></g></g></svg>