<svg xmlns="http://www.w3.org/2000/svg" viewBox="0 0 1331.8 560.86"><defs><style>.cls-1{fill:none;stroke:#fff;stroke-linejoin:bevel;stroke-width:25px;}.cls-2{fill:#fff;}</style></defs><title>Ресурс 3</title><g id="Слой_2" data-name="Слой 2"><g id="Слой_1-2" data-name="Слой 1"><polyline class="cls-1" points="252.09 281.13 191.44 2.66 71.5 558.22 12.22 281.13"/><path class="cls-2" d="M376.53,256.27,392,151h18.62L390.72,280H360.49L340.59,151H361Z"/><path class="cls-2" d="M440.3,205.4h27.83v18.43H440.3v37.78h35V280H420V151h55.29v18.43h-35Z"/><path class="cls-2" d="M530.24,280c-1.11-3.32-1.84-5.35-1.84-15.85V243.92c0-12-4.05-16.4-13.27-16.4h-7V280H487.85V151h30.6c21,0,30,9.77,30,29.67v10.14c0,13.27-4.24,21.93-13.27,26.17,10.14,4.24,13.45,14,13.45,27.46v19.91c0,6.27.18,10.87,2.21,15.67ZM508.12,169.46v39.63H516c7.56,0,12.16-3.32,12.16-13.64V182.73c0-9.22-3.13-13.27-10.32-13.27Z"/><path class="cls-2" d="M556,151h62.67v18.43h-21.2V280H577.24V169.46H556Z"/><path class="cls-2" d="M647.83,205.4h27.83v18.43H647.83v37.78h35V280H627.55V151h55.29v18.43h-35Z"/><path class="cls-2" d="M763,151l-21.2,62.67L764.5,280H743.12L726.53,229,709.76,280h-19l22.67-66.35L692.25,151h21l15.3,47.55L744.22,151Z"/><path class="cls-2" d="M770.21,182c0-20.64,10.87-32.44,30.78-32.44s30.78,11.8,30.78,32.44v67.09c0,20.64-10.87,32.44-30.78,32.44s-30.78-11.8-30.78-32.44Zm20.27,68.38c0,9.22,4.05,12.72,10.5,12.72s10.51-3.5,10.51-12.72V180.7c0-9.22-4.05-12.72-10.51-12.72s-10.5,3.5-10.5,12.72Z"/><path class="cls-2" d="M865.13,208.35H891.3v18.43H865.13V280H844.85V151h53.63v18.43H865.13Z"/><path class="cls-2" d="M938.85,256.27,954.33,151h18.62L953,280H922.82L902.91,151h20.46Z"/><path class="cls-2" d="M980.51,182c0-20.64,10.87-32.44,30.78-32.44s30.78,11.8,30.78,32.44v67.09c0,20.64-10.87,32.44-30.78,32.44s-30.78-11.8-30.78-32.44Zm20.27,68.38c0,9.22,4.05,12.72,10.5,12.72s10.51-3.5,10.51-12.72V180.7c0-9.22-4.05-12.72-10.51-12.72s-10.5,3.5-10.5,12.72Z"/><path class="cls-2" d="M1097.54,280c-1.11-3.32-1.84-5.35-1.84-15.85V243.92c0-12-4.05-16.4-13.27-16.4h-7V280h-20.27V151h30.6c21,0,30,9.77,30,29.67v10.14c0,13.27-4.24,21.93-13.27,26.17,10.14,4.24,13.46,14,13.46,27.46v19.91c0,6.27.18,10.87,2.21,15.67Zm-22.12-110.59v39.63h7.93c7.56,0,12.16-3.32,12.16-13.64V182.73c0-9.22-3.13-13.27-10.32-13.27Z"/><path class="cls-2" d="M1123.34,151H1186v18.43h-21.2V280h-20.27V169.46h-21.2Z"/><path class="cls-2" d="M1215.13,205.4H1243v18.43h-27.83v37.78h35V280h-55.29V151h55.29v18.43h-35Z"/><path class="cls-2" d="M1330.32,151l-21.2,62.67L1331.8,280h-21.38L1293.83,229,1277.06,280h-19l22.67-66.35L1259.55,151h21l15.3,47.55L1311.52,151Z"/><path class="cls-2" d="M365.51,304.27C383.3,304.27,391,316,391,332.93v58c0,17-7.74,28.66-25.53,28.66H340.15V304.27Zm-.17,108.36c12.85,0,18.12-8.73,18.12-21.41V332.6c0-12.68-5.43-21.41-18.12-21.41H347.72V412.64Z"/><path class="cls-2" d="M442.58,357.63v6.92H411.13v48.09H449v6.92H403.55V304.27H449v6.92H411.13v46.44Z"/><path class="cls-2" d="M509.94,332.11v2.47h-7.25v-3c0-12.19-4.61-21.41-17.13-21.41s-17.13,9.06-17.13,21.24c0,28,41.67,28.49,41.67,60.28,0,16.63-7.25,28.82-24.87,28.82s-24.87-12.19-24.87-28.82v-5.93h7.25v6.42c0,12.35,4.78,21.24,17.46,21.24s17.46-8.89,17.46-21.24c0-27.67-41.67-28.16-41.67-60.28,0-17.29,7.58-28.49,24.54-28.66C502.86,303.29,509.94,315.47,509.94,332.11Z"/><path class="cls-2" d="M529.87,304.27V419.56h-7.58V304.27Z"/><path class="cls-2" d="M592.28,332.44V341H585v-9.06c0-12.35-4.78-21.74-17.46-21.74s-17.46,9.39-17.46,21.74v59.95c0,12.35,4.78,21.57,17.46,21.57S585,404.24,585,391.89V367H569.72V360.1h22.56v31.29c0,16.63-7.25,29.15-24.87,29.15S542.55,408,542.55,391.39v-59c0-16.63,7.25-29.15,24.87-29.15S592.28,315.8,592.28,332.44Z"/><path class="cls-2" d="M611.88,419.56H605V304.27h9.88l34.58,97.33V304.27h6.92V419.56h-8.4L611.88,316.79Z"/><path class="cls-2" d="M722.55,311.19c-13.34,0-20.09,7.25-20.09,21.41v4.61c0,10.38,5.76,18.28,15.81,18.77h17.79V343.14h7.58V356h6.26v6.92h-6.26v41.5c0,5.76,0,10.38,3,15.15h-7.91c-1.81-3.29-2.47-6.42-2.47-11-3.46,8.07-10.7,12-19.43,12-15.15,0-21.9-10.87-21.9-26.68V383c0-10.87,4.78-20.42,15.15-23.88-10.38-3-15.15-12.35-15.15-23.39v-2.8c0-18.45,9.06-28.66,27.67-28.66h16.3v6.92Zm-3.29,51.71c-10.87.66-16.8,8.4-16.8,19.93v10.54c0,12,5.11,20.26,17,20.26,9.55,0,16.47-5.93,16.63-16.14V362.9Z"/><path class="cls-2" d="M814.45,419.56H803.91L785.3,304.27h7.41L810,409.34l16.8-104.58h8.07L851,409l16.63-104.74h6.75L856,419.56h-9.88l-15.48-94.37Z"/><path class="cls-2" d="M925.12,357.63v6.92H893.67v48.09h37.88v6.92H886.09V304.27h45.45v6.92H893.67v46.44Z"/><path class="cls-2" d="M968.11,304.27c17.29,0,23.55,8.56,23.55,24.54v6.59c0,12.52-3.46,20.26-15.15,22.73,12.52,2.47,17.29,11.69,17.29,24.7v10c0,16.63-7.58,26.68-25.2,26.68H943.9V304.27Zm-3.79,50.89c13.5,0,19.76-3.62,19.76-18.28v-7.41c0-12-3.79-18.28-16.14-18.28H951.47v44Zm4.28,57.48c12.68,0,17.62-7.08,17.62-19.93V382.34c0-15-6.75-20.26-20.42-20.26H951.47v50.56Z"/></g></g></svg>