<svg id="Слой_1" data-name="Слой 1" xmlns="http://www.w3.org/2000/svg" viewBox="0 0 500 500"><defs><style>.cls-1{fill:none;stroke:#000;stroke-miterlimit:10;stroke-width:10px;}</style></defs><title>vovsiteМонтажная область 1</title><rect class="cls-1" x="20" y="113" width="460" height="274"/><polygon class="cls-1" points="301.38 250.4 198.5 191 198.5 309.8 301.38 250.4"/><line class="cls-1" x1="80" y1="113" x2="80" y2="387"/><line class="cls-1" x1="420" y1="113" x2="420" y2="387"/><line class="cls-1" x1="81" y1="158" x2="20" y2="158"/><line class="cls-1" x1="81" y1="204" x2="20" y2="204"/><line class="cls-1" x1="81" y1="249" x2="20" y2="249"/><line class="cls-1" x1="81" y1="295" x2="20" y2="295"/><line class="cls-1" x1="81" y1="341" x2="20" y2="341"/><line class="cls-1" x1="481" y1="159" x2="420" y2="159"/><line class="cls-1" x1="481" y1="205" x2="420" y2="205"/><line class="cls-1" x1="481" y1="250" x2="420" y2="250"/><line class="cls-1" x1="481" y1="296" x2="420" y2="296"/><line class="cls-1" x1="481" y1="342" x2="420" y2="342"/></svg>